<mxfile host="app.diagrams.net" agent="Mozilla/5.0 (X11; Linux x86_64) AppleWebKit/537.36 (KHTML, like Gecko) Chrome/127.0.0.0 Safari/537.36" version="24.7.16">
  <diagram name="Page-1" id="u0bHgL9ryZXh9v7xUjcb">
    <mxGraphModel dx="1368" dy="874" grid="1" gridSize="10" guides="1" tooltips="1" connect="1" arrows="1" fold="1" page="1" pageScale="1" pageWidth="827" pageHeight="1169" math="1" shadow="0">
      <root>
        <mxCell id="0" />
        <mxCell id="1" parent="0" />
        <mxCell id="wTl5N8vqSqgQVyRXSi7D-1" value="Lensing operator" style="rounded=1;whiteSpace=wrap;html=1;fillColor=#333333;fontColor=#ffffff;strokeColor=#314354;fontFamily=Roboto;fontSource=https%3A%2F%2Ffonts.googleapis.com%2Fcss%3Ffamily%3DRoboto;fontSize=11;" parent="1" vertex="1">
          <mxGeometry x="440" y="360" width="160" height="80" as="geometry" />
        </mxCell>
        <mxCell id="wTl5N8vqSqgQVyRXSi7D-2" value="" style="endArrow=classic;html=1;rounded=0;exitX=1;exitY=0.5;exitDx=0;exitDy=0;strokeWidth=2;" parent="1" source="wTl5N8vqSqgQVyRXSi7D-1" edge="1">
          <mxGeometry width="50" height="50" relative="1" as="geometry">
            <mxPoint x="670" y="730" as="sourcePoint" />
            <mxPoint x="640" y="400" as="targetPoint" />
          </mxGeometry>
        </mxCell>
        <mxCell id="wTl5N8vqSqgQVyRXSi7D-3" value="" style="endArrow=classic;html=1;rounded=0;strokeWidth=2;entryX=0;entryY=0.5;entryDx=0;entryDy=0;" parent="1" target="wTl5N8vqSqgQVyRXSi7D-1" edge="1">
          <mxGeometry width="50" height="50" relative="1" as="geometry">
            <mxPoint x="400" y="400" as="sourcePoint" />
            <mxPoint x="570" y="410" as="targetPoint" />
          </mxGeometry>
        </mxCell>
        <mxCell id="wTl5N8vqSqgQVyRXSi7D-7" value="`x`" style="text;html=1;align=center;verticalAlign=middle;whiteSpace=wrap;rounded=0;fontSize=20;" parent="1" vertex="1">
          <mxGeometry x="340" y="383" width="60" height="30" as="geometry" />
        </mxCell>
        <mxCell id="wTl5N8vqSqgQVyRXSi7D-8" value="`y`" style="text;html=1;align=center;verticalAlign=middle;whiteSpace=wrap;rounded=0;fontSize=20;" parent="1" vertex="1">
          <mxGeometry x="640" y="383" width="60" height="30" as="geometry" />
        </mxCell>
        <mxCell id="PVl-HVuCh3BfL67qFzGd-1" value="" style="shape=image;imageAspect=0;aspect=fixed;verticalLabelPosition=bottom;verticalAlign=top;image=data:image/png,iVBORw0KGgoAAAANSUhEUgAAAgAAAAIACAYAAAD0eNT6AAAABHNCSVQICAgIfAhkiAAAAAlwSFlzAAALEwAACxMBAJqcGAAAABl0RVh0U29mdHdhcmUAd3d3Lmlua3NjYXBlLm9yZ5vuPBoAACAASURBVHic7N15fFTl1Qfw33lmsrAqZGYyE0DZQTGJSDaCotR9aV1Ba9W31VZft7q1rlijotW2atVqVWpbrSta27pU6tIgS0gmUSQYtRA2gcxkFmSHZObe8/4RfF2KLHOfmTvL+X4+fvSjuec5hmSec+99nvMAQgghhBBCCCGEEEIIIYQQQgghhBBCCCGEEEIIIYQQQgghhBBCCCGEEEIIIYQQQgghhBBCCCGEEEIIIYQQQgghhBBCCCGEEEIIIYQQQgghhBBCCCGEEEIIIYQQQgghhBBCCCGEEEIIIYQQQgghhBBCCCGEEEIIIYQQQgghhBBCCCGEEEIIIYQQQgghhBBCCCGEEEIIIYQQQgghhBBCCCGEEEIIIYQQQgghhBBCCCGEEEIIIYQQQgghhBBCCCGEEEIIITIY2Z2AEEIIkQwcvvMUMF0AoBYMNwjrAXwApufhGfU80TTD7hztJAWAEEKIrMJr7y5Cvvk8gGN382Ufgh1nUvFNK1KVV7qRAkAIIUTW4Ghdf5jOBjDG7cWXdyKOaiqZvjrpiaUhZXcCQgghhDaG86G9nPwBoBhOPJPUfNKYPAEQwiYt69fvx7FYkWGoAQSQctD+AADTzDOBvj1fpXop5kIAYEI/Bjm/uF4xbwDATBxjYAsAKGArlOoGAMTNKJEzmqe6o+Ve79aU/s8JYQMO3TkKoE+xrze3TCdQ8S3/Sk5W6cu55y8RQuyNlo4OVxx5BxJoiAJ7oNjFTAMBKgJ4IAhFxBjIQBGAgWaX4QQU1M4ynE3eGYm+Upkz+CtlOoG//C+E//p6BoAv4igCw0AXO+APhHeAEIWJCAhRAGGAowBFmfCZIlqlyFxVGHZ/Nm4cdev+3giRGuoMgPf9yTbxVABSAAgh/hsz06JIxBcz1YGKzQNNpgMJfCADBxIwFMCBJtCn55OHeyZi/tq0DDC+Mn2nXCEYg0AY9OW/6smPGGBmGCBsHRgx/YHwOgCrCLzSBK0k8CrFaEehc0nFwIEb7UlfiL1A5iFfq5j33t6+MsgqUgAI8RXMrN4PhYYZhqMUMMcRUSmAQ5qDkZEACggmGF/eiWfhOzQFYAiAIQw6YmeJAJMAdBnwByKrAF7CTEtIma2GqVp3+IqWTSGK25izED2Y3AleWaw1jwwhBYDIWf5QyEvsKIVhHmISHULg0uZg5GBA9SHqmebFN/FQAEOJ+LtggoMYfYKRHf5A+GOAWom5EcqxoKJ4wMdEZNqdrcg13D/B39t+ujPJBPIJJ3LC4mCwTzc7KploIpgnAqgG4LE7r6xF2MCMBjA3ENF8xbHmipKSbXanJbIbh2Z8DOCgfb8Q3fDEexHV5VTRKgWAyErNnZ3D2XDUgswagCYCKIM88bJTjIEPQGhQzO8Qx+dIQSB0Yq5TCDu3AihMKEAcQ3OtH4B8IIqMx8zKH4gcBqLvgLmWCDVsohjyGD+d5BFQDUY1g65hytvRHAzNhUlvgvFm5SD3f+xOUGS4kGMYKMHJHwCcfBAAKQCESHcLgkGPk9WRRHRMczByChFKAJb5PnMUMtNxIBwHwgP+QHglCG8z8zuc7/hXTVHRJrsTFBmG1BGW9tkwagHM1pZPBpCPS5ER6leuLOzbu/8RbJrHAXQ8wKV25ySSpgvA22B60SygV6UYEHuDQ3c+BdAFFkI0kGf6JG0JZQApAETaau7sHA5DncqE4wAcCaCX3TmJlNsB4jcJNCsfxmvS0VDsCq+sK0QfZwDA/hbCmHBgKBVNX6Mrr3QnrwBEWlkYCAx1kONUgKayidqvNcUTuagQTKczcHoXHDv8gfA7DHqpr8N8ZZzHs8Xu5ESa6JP3PYCtTP4AoGDgfAB360gpE8iHq7Bd87rwGCaeCtBZIJTbnY/ICJuJMYsUzazwuprsTkbYi0MzFgCo1RAqiK3xYTSsboeGWGlPCgBhi+bOzuHM9F2ApoKRU+/dhF4EfGKCnnJw95MVJSURu/MRqcWddx4HIn19/BmXU/H0R7XFS2NSAIiUaQmHfaZB/wPm8wEcbHc+IutsZ+BlMM+sLvHMszsZkXzMdU6EnR8A0LkoOIp4fCyV1GV9MSkFgEiqFuY87oyexMwXATgRubnuJAYgCmA9gCgz1oMo+sVpfCCOgnkjABBjMzlUHAAMgz8HAGWyQXm8CQBi3Y6uQmes21Cqp3Up5/U2TKMAAJSi/YlAbJhOEPoDqghsFkFRETOKABQR4MKXf/VP7bchpT4lxhNGgXpSdhFkLw7NmA7gziSE/hN5pl+YhLhpRQoAkRQtHZGxBvGFBJwPwGt3Pkm0nYBVDKxmwmoCrWbwamWYq+PKXGc4ndHD3e7Ndie5Kw1r1vQiR6+hTjKHMdRQBg8FaBjt7PePniIh020C8ARM9VDVoKKcWd2dCzg4owYKcwHkJWcAOp+Kb3kmKbHThBQAQpu2UKjvVgNTQXRRlr3X38zAx0RoBeM/BF7NUKtjFF89yesN2Z1csrSFQn03x2mMIi4DURkYpQDKkZmFQQyEWWTwfZWDPIvsTkZYwx0zDoSTGgAuSeIwW0CYQu7pLUkcw1ZSAAjLWoLBUhOOK8E4B5l9qlY3GJ8AaIOiJQC3MYyPqoqLV1HP8YACPWs54jFV6iCznAllMFENwii789oH7xL4vgqve7b8uWYeDtZ5oJxzAYxJwXBhKDWZXDd/moKxUk4KAJEQZqaWYPhEZroGhKOReT9L3QB/wEQLCdxksmOJ0ztwWQVRzO7EMtGCYNDjNJ21RHw4wLUATQCQb3deu8cfMdHdVcWuF+Xo4szAgV8OhcOYjdRM/jsHxXpAnULFNy9M2Zgpkmkf2sJmLR0dvRl55zPhagBj7c5nH3QAtJCZG8hhNg7YtOn9UaNGddmdVLZqWLOml8NRUEFKTQLzkUjrTo78ETHXVfg8r8gTgfTFnXceA6JnYc8x3lvAdGm2rQmQAkDslQ/C4ZJYjC4nMi8BqMjufPaAASwC0zxS3Eimo6GiZOBndieVyxrWrOnldBQcCagTAT4xTV8ZLGLCL6q97tftTkR8iYO/7gNH1y/A+BkAZXM2TyNuXJctWwSlABC75V8bOhROuhSMC5DoOdupESbQHDC/EzPojdohrnV2JyS+XVMwOEyZjmNBdAyDj0cabUlkoIkId1V53a/ZnUsuY57lQGTpOQDuAuNAu/P5iijAt2OrMTPTOwZKASB2yd/ZWQuD6kB0rN25fIsuAPMZ9BYZ5luVg9yL5fFtZup5OtDrRBBPA3AKgD5257TTPDLNmyoHFS+wO5Fc0rPIz/F9gC4H0vJJ0ReCIHoUcfUX8t20yu5kEiEFgPiaxmC0RjHXoeeuLN2sIdDfAXN2Ppnvyclw2aelo6O3Sc5TADUN4JNg/7oBBjBLseN6eY2UHLz+ngMQi42GUhPB/B0AhyOzGoYxGM0gfhekFsBUn8AzYjXRNMPuxPZECgABAGgJRqpN5joAJ9idy9fRKoD/apJ6ubp4YJPc5eeO+eFwvzwD3yXG2ejpIpmchi97ZzuAXyuO3VtRUrLNxjwyFnfePQnE3wd4PIBiMAaA0A+p+XM1AFyNnpP+UrFV2UBPE6qNYIRAaAP4Zbinv5lOn2FSAOS4ps7OcmU6bmHwWUiTnwcGVhPTPxTMlyb43AvS6RdG2GPe6g0DCvNiU5n4SoAOsTGVDmLcXuFz/UG2Du4d3lg3EDvy/gTi79mWBOE6ck+/n4MzToXCK7BtMSEvhOE8N11eGaTFB75IvcbOzjKH6ZiePhM/rQLjVZn0xZ40doQnKIWLwTgPQG+b0miGMq+uKi5usGn8jMAb6waiy7kAdm4ZJvo9uW+57P9zCs+4Foz7bMsHCAGOSeS5qd3GHACkxQe/SKWmteHRyol7mXEq7P/z3wTCCwr0RznTXeyrprWbipTqOp8JP4E9p0syGE92xfKuP+LA/T+3Yfy0x513/cPWO3/G8/DEzyOq+9rTGg7NuBPAdJuyAoDFcI+eYPc6AbsnAJEi81ZvGFCY330Dg64GUGBnLgS8D8YTvZ383DiPZ4uduYjs0NIROtwkugHAyUj951ong66v9rmeTvG4aY07Z9SCYN8OCuJn4PJcSHTJLrt7cuedd4Do1lSn9WUC9D9UfIutPzNSAGS5emZn30DkQibcCXs6aH0hCKZZSsX/UOH1LrExD5HFmtaGR5Oiy0F8MVLft+J1mOoyOXWwB4dmPAzgCntGp4fhjl39zTv/b+LwndeA6TewZ03AbPJMP9GGcf+fFABZrCkQPpmA38C+929xZrxBCk9uLXa9OYUoblMeIsd8EA6XxGN8JRFdwsCAFA69kRg3VPhcT+T6OhYOzVgAoDbFw8YBmk6eW+7d2ws4dOdJAD0LYP8k5rUrIfJML07xmF8jBUAWagkGS01T3WdbEx/CBmbMdLDjd7J3WtipLRTqu9XERWC6AYAvhUPPIxM/qRzk/k8Kx0wr3DmjDZTytRmPkmf65ft6EYfuvAqg3yYjod2IkWe6rQdmSQGQRRYEgx4nHHcQ48cAHDaksJyJH+yr8Cd5ty/SSc/hRIWXEuEGpO5V2A5m3FLlcz2Qi08DODSjHsBRKR+Y8Bhc8auI6rr39KXMTAjffSPAM5D61wDryDN9cIrH/BopALIAM5M/GD2fYN5vx0E9BLxvgh7a5i16Th7zi3S2OBjs0wX1YzDdjNQVAu/G4/Q/uXY+BYdm3AXgZpuGfxtmwenk/fm3dgtlnuVAeOlMAD9KYV5fzWAWeW49256xe0gBkOHeD4VGGgY9BuDoFA8dI9DfDaL7a7xFjSkeWwhL2kKhvlsMdTkR3whOwbtfwgYCLq30ul9I+lhpgiN3j4VpfgR7nkYC4IXId55M+9/0X1s0mevyEXY+B+BMGxLbiU4izy1v2je+FAAZq62N87cOjNyIngo7ldv6toPwuNOBXx/mdnekcFwhtGtYs3FgnrP7BgauQip+jwgzC2BckyvnWHDorocAvtLGDBbCLDz2q08Cdt75Pw9gqn154Z/kmX6yjeMDsP1sZZEIf2dn7daBkQ8A3I7UTf7dIDzhdGJkldd9jUz+IhvUDtlvfaXPfQNMNYqBvyR9QMZPutixxN/ZmerV8fZwx34G4F/2JUATobpeYX78y/MGQkt/D3sn/8XId5xn4/j/T54AZJCW9ev34y7jHgYuRuqKtx0Emulw8j0y6Yts5w9GjgbjAYBLkzxUjEHTq7xFv872BYLMdU6EHXUAXQv7Tnd8lDzTL9+57/9+m3IwwHgSFL+OPHVpsUhaCoAM4Q+GvwvGIwCGpGjIbhD+HI/RHbm2eEnkNmZW/mD0PAL/GslfKPha3g7nBeOHDdiQ5HFsx513FUOZp8GkCSD4APRBT4+GoUjFHnzCY+jZIZXso4a3AlgB4POd/9wJ4lbEnX9Ll0OAviAFQJprWrupCI7ux6jn0J5U6AL4SdNw/LJmcNHaFI0pRNqZt3rDgIK8+G0gvgLJXcj2qcF0xsQS1ydJHCOtcajOC3bUgGgKgNORuhsdHSIA/g7CvxFDA5VMX213QntLCoA01twZPZZN888ASlIwHIPxvILjJmneI8SXmjrCFQT8AYTyJA6zmcAXVvo8LydxjIzAXKcQdRwFpp+C8T2k7TzF88C4Hx7jn3vTcyAdpek3NrfVr1xZ2LewTx2Dfo7UvOtvVszXVpR45qdgLCEyTj2zs09n+HIw3YWeR9fJQXhCFbuuqCDa5QE2uYaDd5TCoR4Ap3yb8+4sAnA1eabPtTsRq6QASDP+QHQcyHwGjENTMNxaBt1S5S36S7YvRBJCh5bOzhGmqR5HcvtuzIWDz67yeIJJHCOjcHjGD3augdrPxjS6QLgZrtEP2n2Mry5SAKQJZlbNwcg1AO5Ckrf2MbAFzPcYRtf9tUOGbE/mWEJkG2amlkDkJ0z4FZI3IX2myDhFTs78EnfeOQJELwMpuTn6OsJqAGeRe3pLysdOIikA0kDj2uhg5TD/jOR38zMZ9GeHk6dXuN2BJI8lRFb7IBwuicfpjwAfn6QhNpFSZ1UWF72dpPgZh0N1fQHnywCS9T3fxaD4GM748VRUl3WLoqUAsJk/EJpGoMeSfmQpUwOxeUXlIM+ipI4jRA7Z+TTgKib8EkBhEoaIMfGl1V7Pk0mInZF42UMF2H/TGylZF0BoQ358Mu1Xtz7pY9lACgCb1DM7+wbDMxh0Q5KH2gji21YVu383jSgr3lsJkW4aA9GDFZvPJW2nANNDlb6ia4jITEr8DMPhe/uBY3OR1NcBtBaO2MRsvPP/ghQANmhYExnkdJovATQxyUO9DlNdVjWoaE2SxxEi5yV79w6DXjbi2y+QdTs9dq4JeB/JWYcRBzCFPNOzemeUFAAp5u8ITQbRiwC8SRwmwOCrqn2el5I4hhBiF5Lbv4MXOmGcepjPF9YfO/Nw513ngVj/GQ5EdeS+5XbtcdOMHAaUIsxMzYHwz0H0LpI3+ZsAP2rmq7Ey+Qthj8riordjZIwnoF5/dJoYh3Ne49roYP2xMw8V3/IMGP/WHLYdW2L3ao6ZluQJQArMD4f7FcTpSQYn7wQqxjKTcEmNz52EDx0hxL6axewYFgzfxaDrofmzloHVTgcfM8HjadcZNxNx6K5DAf4Aur7HzGdS8a2vaImV5qQASLLGQPRgBfOvAMYmaYg4gLv7rHfdNW4cZWQ7SiGyWVMgNBWgPxLQV3PoDoPpmFw+Q+ALHJrxKoDvagj1CdzxQ4jqcmKxpbwCSKLmYORUBbMBSZv8aRUzf6fK575NJn8h0lO1z/OSMlEB4GPNoUscxPObA5EqzXEzD/NDmuI8nCuTPyAFQFIwMzUHIzOY+W9IUqcwBv2x28ll1SWeecmIL4TQp3KQ+z9mvppIhL9rDj2Qif/VGIzWaI6bWTzGvwFY2+3E6EbMMUtPQplBXgFotmzZsoL1ffb/ExG+n5wROApWF1eVuHLiHZUQ2WTnYuBbQHQHNH7+MrCFge/l8hogDs14BMBlFkK8RZ7pqeswmAbkCYBGTWs3Fa3vu/87yZr8ifgtp5PKZPIXIjMREVeVeGYw4QcAurTFBfoq4I2mjs6cmsC+ji0WP6R7N0HakwJAk5bOzhHk6FpAwOFJCL+DQTdWFLtPPMzt7khCfCFEClV73c+zUlMA6NzP34tI/a05ED5KY8zMoWihpevJbNKUScaQAkCD5nWdk0xTNQIYoz86fwSoimqf615pAypE9qguLlrIBg4HsFxj2F4MvJqTawKKbukAsDnh69n4VF8ymUEKAIuaA6GzWKm3Abh0x2bG8wVk1lT5itp0xxZC2K96sHtpPJ5fBUDnYt5+is3ZjR3hCRpjpj0iYgCrErx8B3nqghrTyQhSAFjgD4auYtCLAHppDh1n0I3VJe5zy73erZpjCyHSSO2Q/dYP2LLhWGY8rzHsforwZmMgerDGmBmANyV4YaLXZTQpABJQz+xsCkSeBNNvof972EGmeVS1z5UTrSiFEMCoUaO6qnyu8wh4TGNYtyLzrebOzuEaY6Y52pjghVIAiD1ra+P8PsHwiwS+MAnh5yknKioHFS9IQmwhRBojIrPC67oMwG+0BWUMYlPVf9Dx+YHaYqa3RB/j5+TiaikA9kFLR0fvbUXh1wA6Q3dsAu7f6nV9p8LtDuiOLYTIDETEVT73zxnQeRLdAQbF35y3esMAjTHTE+P9xK7jZs2ZZAQpAPZSWyjU16S815jpOJ1xGdgC4nMqfe7rphDFdcYWQmSmap+7jkBXAmAd8Rg4qCA/9o9ly5YV6IiXtij+CoDt+3gVQ7HO9RcZQwqAvdCwZuPArQb9G8B3NIdewVDVVV7Pi5rjCiEyXKXP9TuALgega/vvEZ/32/9JZs7aDrA7V/Lft08XMV4g9y8Se3KQ4aQA2IPGzs7iPGd3PYBKvZG5MUbGxBpfke4DQoQQWaLK5/o9g34EwNASkPGD5s7oHVpipSt3/HYA/9zLr/4QKu+SZKaTzqQA2I2WcNinTPUuA2V6I/MriuNHT/J6Q3rjCiGyTbXP9TSDLoSuJwHM05s6wv+rJVYaIqqLw+0+DYz7AcS+5csYxM+A8iaT+4bEmwdluKx9FGTVwkBgqAPOdwCM0BqY6aFKX9E10tVPCLEv/IHIZQA/oilcjJQ6ubK46G1N8dISd945AkqdC+ZagNwg3gDmFkC9QJ5bPrQ7P7tJAbALCzsiBzkUvw3GII1h48S4vLLE/YTGmEKIHNIUiFxPYF09QjYSOQ6v9A78SFM8kWGkAPiGprXh0eTAewC8GsNuYjanVZcU/0tjTCHSylH13FeZO4oAcsadbBqOwsiCwylnH68miz8Qvh3AL/REo1Vs5FdUD+4f1RNPZBIpAL7Cvy46BIrnAjxUY9gOMvmUykGeRRpjCmG7KfO6J5hMJxF4MjPKCPDs4suiDLQReC6Rml1/hLMBPT3bhQXNgfC9DFyvKdy7q7yu46cR6VloKDKGFAA7fRAOl8TjmAud7/wZi515OEmO8BXZ4qh6LmSK/YiAy0EYt6/XM7ACRI/FlfMxeTqQOGYmf2fk98TQs4Kd+ZdVJZ6btcQSGUMKAAAtHR0uk/LmAPv+gba7sGwUnCCP1kS2mPJe17kM9SuAdayNiTLj1veOzHscsiA2IcysmoPhlzR1JmUCT6v0eV7WEEtkiJwvAFrWr9+Pu4x3GdB5dOZcM199t6aoKCcPmBDZ5ah6drHqfopAJyUh/AKnwzj3ncN7fZaE2FmvYc2aXk5nwbsATdQQbrMJVSO9SXJHThcALR0dvU3Kmw3gCI1hZ8fjO86oHTJkX9tRCpF2Jr/XVaqg/gnw4CQOE4VJp82Zkjc/iWNkrZaODpdBeQsJGKkh3H/MfFUlNy+5IWcLgIY1a3rlOQvfYGCKxrCvbd2xZdqUYcN2aIwpslBD25qBjli3C8osAqkimFxkEhcRKxeIXQDtDwAg7g+GAwwHCP13Xt4LPb+729DzD1sYiAHMgNrAjE1EZhhEEWZEwRxlRVEnsKbykBHr9rYHxXfmdleZjNkAUnGIzHZmdeZ7RznfTMFYWaelIzLWJF4AYKDVWET4e0Wx6wySxZpZLycLgLY2zt8yMPI3AvQ90iQ8u7XY9UM50EcAwKJFK/ffoeLDodRQsDkUoGFgHkpEwwAaCnAfm1LrBvAZgFVEWAWTVzKwlFi1rl46fPm0aT0rwSe/13WQAs0DUJSqxBjYBqZj3jsqb2Gqxswm/kD4SAD/AmD5wB9iXFtZ4n7AelYineVcAcDMyh+Mvkjgs7QFJTxRWey6VLr75Z76+npnnwGDx5hEpSAuB6gUPa2jh9idWwK2MdC2nR0f/2aT74Rtpiq2IYdOg/LGz5tMcix2Avwd4R+A8BdY/2zvYmVWVxcXL9aRl0hPOVcANAfC9zFwra54THigqth1nTwuyw1NHy4fDeKJUDgcjAkADmYNd1zp5OVtRWjpsusBBQDi2XMmF5xoXwKZrTkQvo2BOg2hPo7Hd1TIeqbslVMFgOZe2iDgV5U+9w264on00tbWlr/RLKhQQC0YkwDUYtfNbrLGqngBHt9crOcQegsIfHb9kQWzbE4jI/VsD4z8A8ApGqI9UuXzXGE9jkhHOVMANAdCJzLoVQBOPRHlFyMbNbS1j3QYOIF71occCaC33Tml0qObi/FZ3P4HGgysIDNvzJwpsqYmEfPD4X75cfgBjLUYikE4tcrrfk1HXiK95EQB0LwuNN5UNJeAvjriEfjpCq/7R/LOP/M1NKzpRX27JymYxzDoGOjtB5FRlscKMXNLGj3gID5/zuSCZ+xOI1O1BIOlJjsWArD6PicMB5dVeTxBHXmJ9KHpbjh97Wzx+w9dkz/Ar2zxui+SyT9zLV68uM821ecUMjEN1HUigF6cG7XwbjV3a/oV0YYuAiAFQIIqvN4lzcHwj5nxvMVQbhjqz8x8oqx1yi5Z/anXGI32d3Sb87hnVbYOrymv68wKopimeCJF6leuLCzcFD+WQFNBOA1AP7tzSicxEO74fDBi6fWRwDDjB8yZ0nut3YlkMn8w/AAYV1uNw8Q/rfZ6HtaRk0gPyu4EkmUWs0N1m89onPzf3bpjyzSZ/DMHM6umD5cdv7B12bO9NhshInoVhPMhk/9/WRUrTLfJHwAIynm03Ulkuq3Frp8DeM9qHGK6p6WzU99hacJ2WVsADO2MPArgu1qCERYUkHGqdPjLDC0fr/ItbF1+Q9OS5ctY0WwCnQuZ9HdrtZFvdwq7xjjc7hQy3RSiuHLi+wAiFkP1Ng31GDOnXaUoEpOVBYA/EL4OjIt1xCLgfZXvOLnc692qI55IDmZWC1uXH9PYunxWPB7/jMD3ABhud16ZotPIszuFXVOWV7ELABVud4CIfmw5EOGY5mD4h9YzEukg6yq5xkB4igLegp4FjksVxyZVlJRYrZxFkjR98kmR2Z33v0S4FICOY2pz0iObirHGsH/733+jdXOOzEvmQUQ5pSkYfowYl1gMs95U5sE1xcWdWpIStsmqXQAt4bDPjONZaPn/4qjpwClVHpn801Fz69LhBqurOEYXEdnWVz9rdKXtw0Duv+evEXvLYcauNSnvSFjrDzBQmepBAOdoSkvYJGueALQw5xnByL8JWt4Z7oAyj64qLm7QEEto1NS6bCITrgPT6cjSV1joab4SBeOLI1m3A/hi/clGAF/dgvrFSX35APoQ0I97DvDZp+/NrzeVIGqk3/0AEWL1k/PTdIFCZmrpCB9mEhai52cmYUR0WqXX9Q9NaQkbZE0B4A+EHwVwqYZQDMb5VSXuZzXEEpo0LG4/wUG4lXva8WYkAroYWA3QKoBX9vwdncxmFA6KsumI5nd3RyZMGB21ut+66ZNPitCVXwRlFpkMN0ENg+JhYAwDMHTnX/9/d/3gJh8CabgOoA8ZuHX/dY1gvqamfFSj3flki6ZA5HoC32sxTEfeDue48cMGWAX2RgAAIABJREFUbNCSlEi5rCgAmjsi5zPx0zpiMejGap/L6i+G0KTxo/YpMHAnCJPszmUfhAC0grGYCR9BYZnRHV85afyYQDo1UmlcvGwwE5UCVPbQpuKrA0a+1+6cvsnjiOHa/gEAYICeBZs31ZSPkr4AFu08L+BtAN+xGElaomewjC8AGjs7y5SpFkJDz3ZiPFlZ4ra+UlZYtvCj9knUM/FPsTuX3WHgM4DnE9EHgGoF0FpTOjzjFkdNmdv9KLOWJ2haHZy3HRf0DX/l39BWgO81txT8prZWTqmzoqVj/QEmGR/B2hZZg5U5QY4Nzkzp99JvH8xbvWGAMmOvQMuBLfSvLb6i/7UeR1jRtGR5BZjvZBMnpGF5GgewGIwFrNBAJi+YmCV3o6aJRZR+32+UOLu/8W+4D4A7VJ+ui5qWLL+8unTEG3bklQ0qSgZ+5g+GbgXTby2EcShTPQDLTxKEHdLwV37vMLNqCUZeZeBkDeHa8nY4D5d3WfaZ/8GnJc485y/BOB/p9XO5AkSzCXhzm9oxZ8q4cVvsTigZjqrfMRJKLbM7j2+6pF8Iw5y77b/1vMG4elL5yFCqcsomzKyaA9F5ILa2tobpzKoS1yua0hIpkk4ftPvEHwjfCuAODaECMFV11aCiNRpiiX3U1taWvzleeCmI70R6dOvbAWA+g94h8Ds1ZSPftzuhVDnqve5WAKV25/GFPmTg5v074MAel018DuDG6tIRM9NpjUWmaA6uP4TZeB/WdgWs2LpjyzjplppZMrIA8AcilQAvAGB12XKMmY+uLvHM05GX2DdNrcumMuhX6FmRbqcdAGaD8eJ2Z9fr2XqXvydT5sSuZ7K8MlybSQWb8d3en+/9BYR/weQfyyLBfecPhO8AcKulIEQ3V3ldv9STkUiFjCsAFgeDfbpMxyIQRlkORnxVldfzkIa0xD5oXtx+iEH0CMCTbUyjm5nfIoUXUYhXa0aN2rTnS7Lb8Q08sCsWW4U0eBJDAK7brwMuFd/HK3k9GJfUlI96ORl5Zau2Ns7fOjCyCMDBicZgYEueE2MOc7s7NKYmkijjCoCmQORJAl+oIdQLVT739zXEEXvpn8uWFQzcjpsBuhEWm5BY8AERzcyPqxfGjx8maz6+4aj3umYAdIvdeUzI34qpfaIWIvAftzu6r8rVpzmJaAxGaxSbC2CpwRb9ucrn+pG2pERSZVQB4O+InAHiv1qPxB8VkFkjB/ykTsOS9lrFmAkLdxgWbAbwPIAncumdfiK+28K9N2+NtcHG1zIFZOK6/gH0V4bVUKtY4byJh4xcoCOvXODvCM8EwcpWaNNkVNWUuOX3LANkTAHwQThcEo9zK0BFFkNtNpiqJ5a4PtGSmNit+Z9+2s/R7bybgMuQ4ta9DDQT0WO9zC0vlpeXS7G3l46cEzsWxLPJplbL03pHcViBtj+uGBN+NrF0pLzq2wsLgkFPHjuWAtjPQpjZVT73ibpyEsmTEQUAM5M/GHmdgJOshgLTWbJdJTWaPlx2PCuaCWBICoc1AbyuYN5XVTZ6bgrHzSpHzu26nZh+kepxqwq24Ize67XHJfCzju4+F1dUlGzTHjzL+APhnwH4taUgzEdWlXjk9y/NZUQB0NwRvpoJD1iNQ0R3VXpd03XkJL5d/cqVhb03x+sY9HOk6C6SgC5mzIKT76kZN+rjVIyZ1ZjpqLmxmQAuStWQY/O244K+Eag9b/tLEH9qwnl6bdmwT5M0QFbYuSBwCYDRFsLMq/K57VzkK/ZC2p+m1hiIHsyEuzWEendlcdFtGuKI3WhoXV7aa7PhZ9ANSM3P10aA7+iK85Ca8pEXyOSvCRG7O/MuAfB4KoZzgN88p8/6hxQ4lrxRaKyC0dDYutzqk8SsNm4cdYPwM4thjmgMhNO6jbdI8wJg2bJlBYrN5wD0shgqoDh2zjQiy6uKxK4xMzW2tl+swI1ISTMZ2krge2PIG1ZTNuq2yYeNCu/5GrEvXppGxpzJeZcy0fXoaYOcDMzEvxrYmf/do8qHXQWDxgH0UpLGAoABAL+6cEn7lUkcI+NVed2vEfFbVmIowp268hHJkdavAJo6IncR8c0WwzCzeWJ1SfG/tCQl/ou/baWXDeNPDJyQguG2gfFot8G/kkk/dY6q766BwkwAh+iKycAKRXRZ/eS8//rdbFjcfoIi/BbAGF3jfROB7q8qHf5zIjKTNUYmawxED1YwF8PKmTHMJ1aVeGbry0rolLYFQEswWGqy431Y7fbH9GBVietqPVmJb1r4UfskMvESAF+Sh4ox8Hie03l3xcFDA0keS+zChBbO67c1djED1xNwQKJxGAgR6IGuPOeDC2vpW0/0q1+5srDXZuMWADfAetfPb0vmFXNrwXlysuCu+QOh3wF0uYUQLZVeV5W0aE5PaVkAMLPyByMNBFRbDNW2dceWCulPnRxNre1XMHA/kvXhvBMBs00yr51YOlq2bqaBqW2cH452fw+szgP4GAB99uKyLga/B6Zn+vfN++trFbTXq/EbWpeXKjL/AKaqxLPeHWpydsdPqagYE0lO/MzVEg77zDjaYeHEVSI6rdLr+ofGtIQmaVkA+IOhn4LpQYthuliZ1XJOtX4tLR2943nbHgPh/CQP9R8iuk6OfE1fU9s4PxKNVzLzIUwYTYz9iKg/wFtMxmYCljLTx935zsbd3e3vyaxZ7DhgzIorQXw3rK8J2pWP4/H4sYcfNlba2H6DPxD+NWBpUWBzlc+dpOJNWJF2BYB/XXQIlNkG6/3If1blc9+nIyfxpZa25QfEDH6ZgMokDrOBQfd83sv87UmjRnUlcRyRYRYuWXqQYvUsA+OTEH6VQXzMpNJRy5MQO2O1dHS4TMpbAQufycw8WQ5dSz9ptwuAyXwY1if/uZVel+W+AeLrFrYuPyZumIuSO/nTS8rhOGhi2Yh7ZfIX3zSxdPQn0V48kUEPANobBgx1MNU3fbjcyv73rFNRUhJhpoetRaHr9GQjdEqrJwD+QGgaQC9aCkLYoExHeUXJwM80pSUANC5ZfiGYH0Py3vevY+bLJpaPejVJ8UWWaVyy4liw+TQAr+bQQQfj2MrykR9pjpuxFq38fP94YXwFAwMSDMEG0zhpwZ5e0uYJQMv69fuB6H6rcQi4VCZ/fZiZFi5eVgfmJ5GcyZ/B+IvpKCiTyV/si5rS4W/H4/EJBDRoDu01Cf9euGTpQZrjZqzxwwZsAGBlXRYpxVfpykfokTZPAPzB8BNg/MRiGDniV6N/LltWMGA7/kigc5M0RDuxurC6fLi8GxQJa2try99sFj4A5ss0h15LHJ9cXT52pea4GakxGu2vuo0VFg5k2x4jY+gkrzekNTGRsJQWAFxXp6KfuCeAzSlMGI+eXtMudqgBXOjsZ/bOR2z/Poh5+qFruAvbR3lh9C/c2/DrTWUeXFNc3Jm8/4Pc0dC2ZqAyuv4O4IjkjCDntQu9mha3X8CEx6B3l8AK0zQm1x46Zp3GmBnLHwjfCuCORK9n4PZqn7tOX0bCipQUAOFzHi4hky5n4vOxLyfDEWH7SA821wzHtvEHgNXu0uULq3yeP1lOVsC/pH2IyXgbSenCxuvB6uKa8hF/1R9b5LqFi5dWE6lXAXj0ReVPDaYjJ5WPzPk714Y1Gwc6nd2fYe96P+zK+gIyDij3euV47jSQ1AJg49T7B3apvNsJ+AmAAiux4q6+WH9yObaO/+/6gYD6Cq/raOk2ZV1z69LhBtS7AIYmIfy/TdO4QO6mRDI1Lf50GJPjnwCN1Rj2/e2OrqPkiRXgD4QeASjx1y2Mi6tK3DM1piQSlLRFgJGzHzqjW+V9SsAVsDj5A4AzsgWepxbA+9gcODZ9rbFfFzFdJpO/dQuXLD3IgJoH/ZN/nEE3VpeOOFYmf5Fs1eVjV8aQXwtgjsawEwrj+c/PmsUOjTEzEpP5GwCJH6xGltd6CU20PwHgujoV+bjoNyBcozv2F4x+hei88HB0DXOBiG+p9Hp0HBec0/xtSw81DfUvaH10CgAIMfHZE0tHzdEcV3xF/cqVhQXOfkUq3yiCqYocihyGQYrI2O+rX6cAhlIbAIBjZgTkiCrqilaUlOx1a95M0bM4sOApMM7RF5UeqSkbcYW+eJnJH4i8DPCZCQcweHzVYM+HGlMSCdBaAPDFj+dFNnb/BcDZOuPucqw8ByLn1qzaduL40RVESTxDPPs1LVlewcyzASS6uvfbvG841ZmTDh6+WnPcnONfFx1CTh5jMg9VoKFs8jCAhoJ4MHr+3BJ9J/uF7WCsBXgVFK0i8CqY/B/lpMWHud0rMvXEvFmz2DFkzIrHifgiXTEZfN3EslGWtyxnsqbO6EQyTQvbL/nRKp/HyiFDQgNtBQCDKXr2755k4Ee6Yu4RUUwRTi56/oq3UzZmltl5mt+bsN598ZseX9+Lr5JufvtmFrNj6LpwKRRVMnEZgUoJKLPQgEWHrQx8ROAWJmpwmI75mdRrg5nJv2T5gwxcqSmkSYSzqktH/k1TvIzkD4bngzEpoYsJG5QZG5SNT54yibYCIHzOw7eCE98eYsEG0+GYUPzcZStsGDujNba2TwDwLoD99vS1e4uALia6rKZ0xB91xcxmLR0dvdlRMMk0zUnEmARCNfQXY8mwlsD/BtGbZrzg7erB/aN2J7QnjYuX3w3imzSF28xkVufyCZVNHZHTifiVRK9n0A+rfa6ndOYk9o2WAiB0zkNHEFM9AJsWyHCzq3N9Lc2pi9szfuZpXtx+iEGYA62P/Xm9CZxRWzbqPX0xs0/zuvAYEE6E4hOZaTKAvW52kaYMgJsZ6u+g+KxqrzdtG+csXNJ+FzFu1hONP0UvVNeMGrVJT7zMMovZMTQYWQHggESuZ2B+tc+dpD4jYm9YLgB4al1+RBV9CMDetpmEa90vXCkHAO2Fhrb2kcrAXAA+fVFppQl1Um3ZsE/1xcweTR3hCiKcDeAMAMPtzifJ/Mx4kR3ms+nYmKtxcfuvQZaOt/2qV6tLR5yWq7uQmgPh2xioS/R6E2pcja/oY40piX1guQAInfPQT4nJSo9oXTblORxD93/uss/tTiSd7WzyMxdat/pRE4hOrSkdnnYf9nZq7OwsUwZ9H0TTkP2T/q7EAHqV2ZhZ5fO8nS4LCZmZmpYs/z2AS/REpJtqykbcoydWZtl5fPtKJPj0lwkPVHvd12pOS+wlSwUAT63Lj1DRchAG60rIEkade9aVt9udRrqa/8GnJXlO51wGRmgLSvxXc3Ph+bW1Q7Zri5nB2kKhvltMOod6zrWosjufNLISxA/2UXhynMdjezMdZlaNS9r/oumcCwMKx9YcMrJeQ6yM0xQIv0HASQle3rnK6xo0jSjxvgIiYZYaAYUdA7+XNpM/ABAu5qmzcr5Rx67Ut7X1zXM6X9c6+QOPVx8ycppM/j13+/5g+PGtBnUQYyZk8v+mYWD67VaT1jQHQve0hMMaXz/tOyIy87o3/hDAOxrCOWDi6Ya2NQM1xMo8TFa6+hUf2Bk9UlsuYp9YKgCIcZ6uRDQpWa+CR9udRLqZNYsdvYyCZxkYry8qPVJdOuLSdHmsa5eWjtDh/kD4NWWqD8G4GJmxgt8+jP0ZdIMZxyp/MPy4PxTy2pVKRUVFDL34TACtGsINJqPrDxriZJxtvqLXAXQkej2Bk943RuxawgUAH1XnBNR3dCajgwkcb3cO6eaAsSseBPA9XfEIfG9N2YgrcnXhUz2zsykQucAfiLSaRPMAnII0Olo7Q+SDcTEbtKypI3JXYzTa344kakaN2mSaxkkA1lqNRcDpjUuWX6ghrYwyhSgO5sS38zHOqGd2akxJ7KWEC4D1xQMrAE7Dux06yu4M0knT4vafA6yt4xaDbqwuG3WjrniZhJlVUyA0tU8w8hGBnwK41O6cMh0BfYn4ZtVtrPAHQ1fN4tT32t95PsVpAFk/oY75wcZFy0dZzyqzsDJnAkj0aaCrdyAkT25tkHABYBCN05mIRgdxXV3SDjnKJE2ty6YyQdfqZCbgyollI+7VFC9jMDP5OyJnNAcjrQSahaQck5zrqAhMvx0ajPj9nZ21qR69pmzk+0zmhQCsPtXqCwc/nWuHBlV7vSsZSLw1MDmmaUxH7CUrE6XOxWQ69Vq/bGCJ3UnYreHDFVUMehqaTnwk8HXVZSN/pyNWJvEHIpXNgeh8EP8VQLoWvdnkMJhqXlMg9PD8cDilTxgnlo6aBYaOHv81B4xZkXMHBinQi4lfy6e3tXG+znzEniU8ORDz/joT0Yni6ZtbKjR98kmRUuaL0NRhjhnTq8tG5VSTpZZw2OcPRP4EcCOIU35HmuMUga7Ij+Oj5kDoxFQO/Nl/RtwA0FuWAxHf3dy6NKd6P7DDfBkJHhPMwIAtAyPHak5J7EHCCy8IVJiuK8BMk3rbnYNdZs1iB8dWPAfwUB3xGPTAxPIRd+mIlQl2tje92oijjsB97c5nDwIArwJoNYHCDI4QKAriKJg3QqkYABgGfw4ADiIHFHoW2xnGfiaUG+AignKDeBgBQxkYhvTZyXAAg97wB0K/j8e7flY7JPnbTadNI6Ppk0/O5VheC6w1y+ptQj0CIKUFjJ2qPJ5gcyA8l4EpCYY4G8AbOnMSu5dwAWAC29N12TM5lfXFPBnqgDHL7wFwnJZgjIcmlo/ImS5dTZ2d5RSM/AFARRr9bJsMrCDQYgIvYaYlCvh4c9fmVVOGDduRjAH966JDWJllRFQKRgXAtdDaNnqfEECXOZ2FR/nXhn6QijPkqw86KLrwo/bzyMR7sHC+CQMnNC5Zdl5N6ahnNKaX3hgvghIrAAh80ixmhzQFSp2EP+ciZz88g4FbdCajDWGQ+4UrE96XmqmaWpdN5Z73cBrmL/5TdenIi3Jhq1/9ypWFfQr6/AJEPwOQZ3M62wH4iWg+2Gxw7shrGD9swAabc0JTMDgM7DwCzCcQ8XEAaTxEaq91EeOnlSXuJ1IxWGPrstsB+oWlIIRIjPNGH1F2YE60KP8gEHDH4exAgjeXrFRtdXHRQs1piW+R+BMA4nbiNLpP+tJW1wtXBPQd/Z0ZmhevGGPA/AN0TP6M+n7O7v/Nhcm/qbOznEz1LOxd4LcUTG8yjDe3dW17L1l39lbsPOFvJYCnZzE7hoZC1czqLGJMBVLWDbSACY83BSLV23ZsvjzZ36ft0bV39ioaciyAiQkHYbjyKHYbgKu1JZbGDvP5ws3B0L+ZKaGnkGSaJwCQAiBFEp4swuc8XAFGs85ktCD43S9cWW13GqnU0tLRO56/rQV6TmRsRS8+ItuPOGVmag5GrgVwF4CCVI9PQKvJPIudmFXj8SxL9fi6MLN6PxCuZdAPTcLZBKRq3URLPE6n1Q5xrUvmIM2tS4cbUIsAWGlUFGMyyyeWjv5EV17prDkYupCZnkz08iqfW9pop0jCuwBcRvEiALY/mvwvjDl2p5Bqsbxt90HP5N+hCKdk++T/QThc0hyIvAXgN0jt5L8GwB2K6aBKn7u8usRzVyZP/kBPT/2KEs/8yhL3jzlfDSLG/wL8UQqGrnA6ubGps7M8mYNUlo1eAZDVu/c8xUrH9sKMYMYL/4EEdwMAmLAgGPTozEd8u8S3Ab40zSDgbZ3JaEF40+4UUmlha/uJRFqONd1imnxKVenINRpipS1/R2hyPI4PQDgmRUPGifB3Bk5Z5XUNq/K5b6socX2aorFTqqaoaFNlifvxSq+7jMAnAXg3yUMOJlPN83eETkjmIDVlI/5kdWsgAyc0LVl+sq6c0ln14P5RgBN9OqzyTKeeRcxijyw1iWFCuq1u/cw1NjrX7iRSpeXjVT4FPAXr7/0NgM6uPXTUIh15pavmjvDVIHoXQHEKhtvIwK9NQw2r9LpPr/a538iV1c1ExJU+z5tVPvcxUOYkAP9O4nD9QPSavyOS1IPJHDAutdoqmJnvq6+vz5Ge92ThRoxzZuuk3SwVAC6j+A0A7ZpysYyIHqW6upw4nY6ZKR6Pz2TAbTkY8a01ZSP+qSGttNTS0dG7qSP8HBMegIWFr3vpM2Jc2+3EkGqf+/qawUWWD5nJZFXFxQ1VPvfRBEwh4P0kDeME8VPNHWEdT8J2qbJs9AoQ32YxzJjersH/oyWhNEeg2RYuPo6ZpZ17Clg7DvilaQaYf6UrGSuYEOVtWx+1O49UaWpd8VMAOh4p/r36kJG6zgtIO42dncUm5c0hwveTPFSAQFcO2LJhdGWJ+4HD3e7NSR4vo1T63HMqvK4qgC8EEEzCEIoJv2/qCCetb8Vnn4z4LYAWKzHYpFvb2tqyvuVthbeoBUA4wctd73dGK3XmI3bNcpXlYu8fAdj+6JhAN7tfvSEnPnQbWleOBbGOSfs/6MX/k63b/RoD0YOV6WgEkMQPE44y47p4fMeISp/rd6NGjepK3liZjYjMKp/nT2a+GgPg90j89LjdDIH7/MHQTzXHBdDTJdA01eWwcmAQ4cDN8fwf68sqPRGRCULC6ybMxLsJin1guQCgl6YZIFzMStn5fnOua2zkDzaOnzLMrBQZM2G9z/8WZfKZ2brivzEQnqLIXKCrJfIuxMH0UDxeMLq6xH1/KtrUZouaoqJNVT73ZYr5SAD6F0Qy/bYpGLpIe1wAtYcO9zPwtKUgRNMbGtb00pRS+jItLMhmnqQxE/EttLxnCd16RevnJ5fZ036XESLTeW6uvPtvWtJ+KRiHWwzDYP5R1aGj2rQklWaaOiKnK2A2GEk5FIqI3zKYyqpKXFfVDtlvfTLGyAUVJZ758fiOw9DzNEDnUygipsebg+FzNMb8f0Y8fjOALRZC+FSf7qStV0gXToq/hcSf8tQyp2enuWyipQDYMjB86sajx/bfdORoHeH2xTbFdJrrpUuT2gwkXcz/4NMSgGZYj0SP1pSPetl6nPTTFAyfS8SzACTjPWsYjPMqvZ7jJ5a4cqKpS7LVDhmyvcrnvowJ3wMQ0RjawYyn/IHwkRpjAgAOP2xsBzH/0lIQ4p9n+1qAw3y+MIAPErx8YFNwvY7eJmI3NJ0Vry4CgOhp47F54ggdIffGJrB5StFLV+RM20iHw/E4YPmu9hNnd6/rdeSTbvwd4Z8Q4y9Iwkp/Ar3kRHxcVYn7Wd2xBVDtdb9uGmo8A00aw+YD+EdzcP0hGmMCALb1d94PxmoLIUo2GQXnaksoTRGQ8LZsxaa8BkgyywVAS8f6AwDuOceZCJFplfj8pFKAkvf0hkCr2FRHumddVZ+0QdJM0+Ll3yeiU6zEIKBLOcxzKypKtunKK134A5HLQHgcmorarwgT4dRKn2vazjsakSQ1g4vWbtux5SgG/VFj2P2YjVd1d5ebMmzYDlJ8p8Uw12X9Y242GxK+lmQdQLJZ/rA0yfjh1+IQsOG4cQheehTiA/pYDb8rLzi6YuM9L12e9GNB08W81tUDmPi3VuMwYXrVuNFZ931rCkQuAPhhaDkF8SsY7zidOLTS635Va1zxraYMG7aj2ue6CMRXQ98ugWH57Hihnlnrk6FtkbVPwUIfFAIOWdi6/HiNKaUdw4H5iV9NVtc6iT2w1gmwp1nDD3f137aPLsbam07ChuPGwSzUcsLqIqXoOPeLV35/wN+vSb8zCJIoj2N1ACzdwRDwXvUhI7KuH7k/GDqbwH+E3jv/GDGuqfS5jjvM7c65Y6XTQZXX8yCDzwGg5cQ/Bqb0CUasvbf/hilTpsRBfIeVGIpwna580lFNcXEnJ14kjfCHQl6tCYmvsXTH1NwZOYZN3uN5AI7t3ei7cDn6Nq9GfmCf5u4uAl43gSfdL14xm5Cd+9V3Z+GSpQcRq8Wwdk79BtM0Dqk9dExWLZZsDoa/x4yXYe17801BZp5WXeKZpzGmVvX19c7C/YcOdjhiBzCo2GTlAnGRAvc1ofIJ3PPojbCdga1g2qQIGxnmVjIQAhlLq8rGrCaitN850xSMfAfM/9B0yiAz+Oxqn+clDbEAALNmseOAscuXwMJhXKTUodWHDF+sK6d04w+E/gxQQh0Qic2zKkuK/6o5JbGTpQKgqSP83L52WHOGt6BXeycKPlvf1a9xxUJiLmKgD3q2AX3OwGcg/AcmzQfTXM9Ll1vZbpPxmlrb32TA0mEnDFw8sWzkTF05pYOmzuhEMs13AejbT83U4Mzjqel019/04fLRTHwYiMsBKgNwMIDBsL7QcQeApQAtBfgTMnlBIW2bX15ebs923t3wd3bWgtUbmrZ1bjQQP3Siz7dKQywAPetzmPi5hAMQPVpTOuJyXfmkG39H+CcgPJHItQT8qtLnvkF3TqJHwgVAw5qNA53O7nVIuCENP1rl82TtD70OTUuWn8zMr1sMM6e6dMR3sqnbX0tn5wjTVAuh4xyEnQj8dO/17p+MG0fdumImorFt2cFs4AQCTSagVstZD3uvGwQ/m/wuE+rzuzc2VFRUxFI4/rfyByKVAL8DoL/lYIQFq4pdR+o6nKm+vt7Za+CQdhAOTDDERmd375JsXJwL7OzICTPRniOzq3xuORwoSRIuAJoDkSu4Z+FVQhRjQkWJO9E9olmvpaUlL56//xIAYyyE2Q6DymvGj8joM+e/amfh2QBr35evYgL/qsLrvsmOImnWLHYcOGb5kSYwlYATLUwi2hEQZsbzIDxdUzYyWQf57LWmzuhEmOZbml4H3Fblc1t6f/9VjYuXXw3iBxK9nhg/rC4f+ZSufNIJM1NzMBIC4Erg8o4qn3uQ7pxEj4QLAH8wvAiMQxMc9cMqr3t8omPngqbWZdcwyNKiPQbdOLFsxL26crJbC3OeGYy8A2CyppAxBv242uey1to1AQsXLzuMSF0I8FlIzfHEVn3MoKeJ6M81pcM77UqisSN6nCLzdVhf9xEnk6sqB3m0nGMy/9NP+zm7nZ8h0T4djAU15SOzdtW7PxCZDXBCOx4Ux9wVJSU6m0SJnRJaOd28LjQ+4ckfADE9mei1uaClZfl+DEy3EoPttf0qAAAgAElEQVSARTuin92nK6d0YAbDD0Df5L8DhDNTOfm3tHT0bmptv6Sxtb2FiN4H+HJkxuQPAAcT+B6wubKptf0h/5L2IXYkUVNS9BbAF8N662AnK/qDrq2Bh48du5nAjyccgDCpsW3ZwTpySUcMbk302jjllerMRXwpsa1TCmdbGHNHLJ6X+IKZHBDLM68BaKCFEGyyeemUKVPi2pKymb8j/AOAdK0Z2WayOrXK635NU7zd8ret9DYtaZ8Rz9/2GQOPAZiQinGTpBcDV5qM9oWLl/+hoa19ZKoTqPJ5/gxAQ0tsHNY7GNV2fDARPQIg8XUFJv1QVy7pRjEtSfha4jKduYgvJVQAmKAzEx2QGX+TA1S+XUPbmoFEdLWlIIxnJpaP1tlS1VbN60LjQdC1i2EzM5/QcyeZXP62ld7Gxe0PsmGsYsYtAIqSPWYK5RPxRcrApwtb2x9etGhlUg5e+jaVXtdtIP6b1TgErmsKBofpyKmqdOQaALMTDvB/7J15fFXVtcd/a5+bhFGmJCRRJJAE0JBENLM4oLbaOrRqoX3ObbV9Tn21Suchtn2virbVVm3VWmerWK3W1mqtRquSm0EwiQE0CYGCScgAKARI7j17vT8SEMKUrL3vkMP9fj5+PtVmrb0IyT3rrL3Wb2ks8qoyoHZccQWANMUqACFi2AlA1YaO4wgQZ/3KsSrz6TlUsO8mABMMXGzT7H7PVjyRpmbTpgms6BnYGffbQcB5oZ7xX7GiZWJFXdOt2nWbQfgGAwmhPC/COARc1+u4q/z1jZeE6wFGRKzjnCsAvG/oajSx7zbziHbB8kSVML2yrqnIXizRw+SPP14NQDRRwoRYBSBEDDsBYKUWGpzXkp885TUDe0/zdm1TMoivN/HBjFu8JPijd7r3ALDxhtbLrM8vSE163YKv/bJ0KTuVdU1f73PcDwj4NoAxoTorCkkB06OV9c2vhesuu3jKlI811AUADLUL+MLqts5TbcS0o3vD3wGIdSSY1CIbcUQbWVlZvQBLk7XspcyO1YBiABAkAET8BelhBDw8EtTHIoWP6DswG3Fayz0JnpH7rWrtvBgEGxvTXGb6UlHa1Jct+Nov/rqmE6bPaa5m4Pdhnt2PNk6FSzX+uqavheOw4tQpK8G4wdQPM+6w8ZBZsGBBkAkPSe0JvHBAYt17MEmvAcYc3dk502osMQAMMwGo3LgxD8As6WFBpqVSW69Ts3JtKoOvNvFB4G+Xlk7bYSumSFL1Yfc0Ioh1JvaEQN8sSkt8zoavwSxbtn60v75pCQA/A7HR1n5GA7jXX9f0xFurV48P9WGFaUn3AzD7bCHkpbd1D0vV9ICugvSQgflRlbVrSm3EEXUoeSMgBTmWAISAYSUApJW4+Q/AypK0xFUG9p4mGAx8A2b33O8U5mT+2VY8kYSZFZR+jIFJFtz9siA18S4LfvahurZprhrXWwnGYphL83qR//IFfO9UNXwgHhkeKooD1wLoMPHBxD+xMRY4ILwlFzkj/pxpDNEIsRY3AgLKSqNmjL0ZbqlJfP/PgLUFHF6jvKFhHEBfN/FBmn/gFbnf6vbur8PKvD89U5CS+G1zP3vDzFRZ27TYJbwDINahfDAYWdpVy/x1jSF9qOWnpXUxwWh6hoDMMRs7RUtrBsMwqHYSPCl9q10Sr05WZKUPKMYghpwAVLdvmgtgjvggcjzxdhoKRumEr8DkbZfwVtFxWSG73w4n/g3dRwF8i7knqk+g4OW2e05qaponVL235nkmLAEQb9O3ZaLpKmg0QH+urG/8aigPKUpJ+hMBfzfxQax+aKMKoDiwFHKxouyahuajTWOINibv2LIOgPD3kWIJQAgYcgLA7Jp0/79fkDL5PQN7z7J0KTvEZnP/DP6RrXgiDSl9F8wXvmxVjEV5KSlWN9tV1zbNDSZwNTOfa9Pv8OBNACoAfpBB3yXCBURUQJpma+0e5eujicW5mVScmzmmODeTfH00MRgMHumwmqMZnwHTDcz4PRjlAMK5adPHTPdX1jZ+P5SHaHKvR/+mQyGcPmZjl3EnflHenBYQV0vtgy4bbQCNRvonAdAusWVwut1oYgDDurfkC8SrA4hi5f8DMH1O0wVskN0y8GpJTtbrFkOKGJVtHQsJMC0VayZclJ+auNpKUANUvtt4pktYCrawjW54rAehnDRec3xUnp+d+Z/hGOfnZ3wE4KOBf30fewjV1NTUxAVGTSwkjdMIOJ2B+QBCOW5FTPS//rrGpOLcLOPO/f1RlJLSUtXa8WsQibUwiHEjAGO1UmJ6hoFCoflnANkK3WiGgTUEpAlMYxWAEDCkJ7p/Q/dRytHrpYew0scVTZ1aK7X3Mv66Zj/AYvEPTTixNCdzmc2YIsGy9etHO75Rqwhm2/BCsT+8oq7pKgLuQfga/d4B06PQeDGcmxyXvfv+kY5yLtbApQTMDfFxPy/OzQxJ5aqho2Ncj0sfAEiV+mCi04tSEo00S5bVNecouQb+1vFOb2J2dnZE11Pbpqq981EwLpHY9vlwxPykpK22YzqcGdIVgONzP21wxgexh//+WVbfVGry8Aej3AsPfwDw+UbdZOHh/86YTYlWHyr++sbvUf+bWKgf/hsIfCsczi7Ozcwvzsu4M9xrnEuPm/1hUW7mkpLczBytVRGA52C+dOdA/LCyrum6UDjOTk7eBpDZrgDN3zCNozQ3ox7ABqH5+G1u/EjeGbF/GC1S01Gum24xkhgYag8AK/F9FMXK/wdEAWad/4o8se1v2fquIwGYvrVvJ6ZLsrPJ2htTZX3Tz8H0f7b8HYAaAs4vysmYXpSb9d3i7KyVIT5vSJQeN7OqODfzfIeRy+AnYLLk5gAwcGdFfZPJYrEDolKm3A/IHzZEOHt5Z6ekVD3Yj3w3AJPn1gMT8VqprYaTbi+SGMAQEoClzA6DT5ceQJqfldp6mRUrWiaC5WOVAFYVzp35orWAIogvjm8BMNbMC92Un2bv3r+yrvGWgQU+oeJN0nxWcW5mQVFu5nPRqpBZkJf5Xklu1sVEVAygxrJ7RYxHKuobT7XsF/lEASaYJG++QIC/bBqHBv1DassEzwkCuUzipAxMR1kMJQaGkADM3NidD0C6mrbthNTEFUJbT9PnuJfAQPiHmX/lhbn/mvb2HLCx3O8bBSlTfm8lIAD+uuYfM8hqH8EuCFihoE8pzs08eSSNbhblZNQU5WQUgflaAFssuo4npierGlpSLPoEAIzrTnwEBrr8RPRVU1neuF68CmH1hIATvbYd0FF6ndyaE+1FEgMYQgKgmc+Uu6eXvfCQCgUMXGVgvnHnEb7HrAUTQRjOTyFcSz1Ar8t0ta2fs8q6xhsAvtmGr0F8xIRvrFudUVCYO+vfIfAfcohIF+dl3aMIuQTY7D2Zql338aVL7S58yc6mPgb9xsDFjHfaOo3ewgemMEQ9UAwk1dS1iKXXo5ExRHK1RiYvrdOOCg79wUsQNwAycch3ro9EKmo/KAKMVlzevWDGDINZ5+jA39p5ArPh2B9RmS2JaX9t4xcYdLsNX3tC4MeV48wpycn87aJFZP0uPdwU5mSu3969/hQGlsBek+Bp02Y3WZ8KiN/p3AtA3DnuEox7FAh4W3y+4hNNz48m+hs00SsyVhxLACxz0ATA3919BFg8x6qDcF8V2nocx+Ttv68vyNbK3ZFEEX4GsbgEQMAqNXWKlUZIf21jMYgegVk1YjCbCTi/KDfrksLsGSIBlGhlwYIFwZLczO8w8+cBbLfhk4h+WFnbdJoNX7uYN2PSFhCeFMcE+oLplkBN8gQAgPcmAQhdIjtG7ArAMgcdbVK9fAYIcULfy09MSTFazuFFyhsaxpHL4rcKAp47+fisTpsxRQJ/a+cJgJnmOTN/q4AoYBrLW8tXp4HoLzBbxjQIqmRXfal43oy19nxGHyV5WX9dVt/0KcX8AkDSXqFdOEz0h5qa1rn5+WlWkgoAANP9AEuT7pQZ7V0nAXhdejxpfhskzXPZpFIYlRCjm4EjBaaxCsAQ8Dc2HkHb6XwmPoVAqQzaCuA9pfUzhcdlNez5tQd/21Hy+39mipX/98PoYMI5AMZJ7TXofovhRAwCbjSxZ+DFwrRk+YjVAA0NDfFxPt/TAGw1oTGBfuXr23xSiccf/rsozclcBgcnARCLhX0Cz3ATtluVCy5MTawGy+7hAYCBs03OL87L2gCGrPmNkeO1RkCGsAKAWAXgUFTUNV2BndTMhIcA+jIDZwG8EOCbtaJ6f13TE2/Wrdu9d+bgCQCT+P6foEdMh3NYMbhTJKC5OGfmiL9WWd66eTqR0QhkUGl8y0YsH7sJv2RYG7cKgPiyotyMG/Pz840rEyOJ4uyslXDpdBiu5AUAMG6qrl0z2zyqPSCYNM3a2M73jtBuwrJVLZ5aDESgbqFprAJwEPx1TT8l4MGDXJUQgP+KQ6Di38sbk4CDJAD9IhjiBQxbVWpShdDWs/gbG48AIBZVYuIHvDBVEVDB/4GJsh7joYIjk943jaOyvvkcAq419dMP9WjGecU5WZ6YzpAwoFz4WRg03QEAAwku6bvsRDWAVk/BYDvf8tbNZiqViqSSwFAB11PXAAyWVgCOaGjgaN7AGTH8tc0XAhhqE+3seB89CRwkAQgE5d2nzHgt38LdrOfYifMAjBJaB5TyPWgznEjg7+4+ghhXGrjo88FnJvMKoKqhJYWZH4BBE+IedDO7p5fmZRpfSYx0inMz32HQBQBMFRnPqKhvvsBGTABQeOSU9QD7pfZBBE3k0KGBeqmtAnJMzo46SFwBwI7krlgVYBDl5eU+EG4bptlpFbWN5x74CoCoRBoQUez+f3+wNhopetELneTUqy8CMF7ugf9wfNokAzGRfrTr3gsg2dQPgI1M+qSSvFmVFnx5gpLcjH+B6dumfoj1j23efzPUc2JbwklGZyvxUiAwaI7J2dEGad4ktmU2VAz1HqMSj5oP8LC3JRKpyw6YABCzOAFQDKMtWl7kzbp1k4jkPRVM+JPNeCIFkZEAUl8wqIy1+Qf0588z9QPgY635MyU5s6zoEHiJotyZv0H/MiEDKM9f13SOlYAAOBQUy/ISYDSPX3JsxhoA20TGylurcDWwQ2obcJ3YFcBgWAkXynHxfhOAxsbGBIDmCZ12n5A6xfh+1mv4EPgcAOkP7/YxuudvNuOJBJWtnfkAjpd7oMdLpyV+aBTDqlVTiHGniQ8AIKAXCp8vPS4rJnW9H4iIA4j7CmCg/Q6ASFnbx5CfklIP+aTCzIGlVSIGdj3IdlUw0qXnRiNKsfh6SLluLAHYl6lSu/0mAJuPOOIEAAkSjwTye6FRzTZELH+TYbyQl5fXYzGciEDK6O2fFQV/bRqD7ov7OeS/MLvdAHxp8dzMctN4vMxJudM3K7hXwEgtkIsq6prPsBUTQOIpmjjHLTY8W5oMpb3Y2Cj6PI5GWJNMCRCA8inPfB9sQeAxQtMDLLrQSlz+18yx7v9BlJeX+8Bk8CE28lcql7e0jALjS3IP9M+BNzgxy+qacwyvIAZCwbeLcrNG/N9JOBjYeyBW4gMAIr7JUjhgYrEqHyvnOKOzwdIEQE3epjwzCsgkrwBorWMJwD6IJyP6DtADIG8AhFKxBGAQY6ccWQpggtB8q+6JH/Frf8ckjP8MgCOk9gRtoWzPvwZgunDmr0VzM35lGsvhhM/nuxHAx2IHjDPeWr46zUYsWpM8AdBs1I2vyOA6xKc90wegSF4BIEfFrgAGQfKr5d4DJADiBkB3nNJVQlvPotmRz/6DXygtnSZumokWiHiR1JaBdfkpSUbCUhV1zWcQcLqJDzDWaSfhy7ErruGRf2x6GzFMRjcdX5zPdGU0AKA4dcpqAjZLbImMFnjB1bxWakvANJOzowmttTgB0JpjFYBBMMRJ0b4VgAHBC1m2Tagf2PYUY2/kSmKE5y3GERFqWlvHMCDugSDggYEmKjEE/pmJPYAAwF8qzZ4mHmE6nBmFnnvES2AAgHGZjTiIiFm4nhdA+ludneIR1jgocQWAWSVJbaMNJiW+AiCmWAKwD8KkiPeTALgqKC//M2Ll/0H0L5rhPKF5MMjxr1gNKAIw+T5L8v0HwWCQ/mhyfmV989kAjBq4GPhpcV6WWEjmcCcvL6+HNe4wcJFT1fCB0R38Lggk7SWhOK1nis8NsFzHg72zClcpeQWAVEwJcDDiKwBC7z5yrJpxvFR5g5hiCcAgfL64MwGhmAnBf1LOdFG5Mppgos8Z9IG/Yjr6xwxTUZr3j3B6lxj6iAq+9rWyMX2+nlla6VQFNQ4ANPQ2pVVbfHDsB/fdV2ZvC98g4gJ0VzCebwIwUWLPLn0JwLumcWjiOukljmInHcIKwgknzPy4sr45AAg2rJKHFuFoJyAdDNFMsQRgECxMABjo2ycBIAPZSXLcZVJbr0LQp7NQbZY0i4VLogVmVtXtXXIBJNBTJudX1jfnM/PJJj4U07XZ2dmm0raRgi6/bnEpAQsZOL0XPdkAiKB2fwQTFFgBvfE9fPl1i98D0auK6OkHf3NrBYxG+PYmPz/jI39d8+MAi/YvMMish2MAYjRKbRk6XXwuEfvrmjZBMIZKRJ6pALAiH2nhjxVxTGJ+MIwEySOGsJ8KAIC5wjA6T0hOXiO09SxsMFHhMkZ8AlDd3n0C5JK7vfE7HaMeCAYbrR0G4cnC3IwRt4FxYVlZ/OjOnsuIaDHAs4b4cUsAcsCco5m/edm1i99XCkt6pox97OmyMisJkNb0iFKyBADAvDfr1k06KdesKqbYadHkyoy1Mu3G74IgAWBmz1QASGvxW7zSeqQm4iGDCfHCqv3ePQArWjZPBCBSuyLiFbHu6L2pWbk2FYD0zrCtJC/TuNwZaQj8WQPzl+fNmLRFavx2bVMyGCYLZbb5HJ+VtcPh5PLrF396TFfPe0S4H+BZUj9EmM2MB0Z39tRddv1NVsR4So+bWQWwTBEPcOIpcKppDGtSJ30I6bIiYkMRKfEinMlm50YPmuViPlopcf+AVyGhDgANTgDchMBcSLejMb0nsvMwwUBAvlER+KcXEioGnym3pWdNzvYBl0M+IwsQfpd/bHqbSQzh5Prrr0+4/Npv3wnGywCybPklwmxieuXy6xbfe/311xt3YTOTeGWyZpxmev4iIhegVpHxgXetD9WBtHohVXuLOpSSi/mwlk8QeBjR95PBeycAmpT4/p/BsQRgMCRfIKKI37QZSiSobW8fC1C+0JwdH4u3SjIzMRmtHd6hlDNiBH8uuvq7kz7SCa+B+BshPOZrHyPhXxdd/d1JJk6IYLI2+VSTsz9BuJNeGSYAjJ1CS880vxHLZ/kVyScIvAuJmmoB2jFoDFBny4NQsQRgH2i+1FJp5y2bkUSCPnYKIOl4BkDA8vykJPHbd0VtSwEAcfmbgQdGyvrlr95ww+Q4x32DiEpDfhjTfJ8TLDdJAv6zOuNdSMV4gDkNDQ0WHobCUjzDtBlP+gbrmfl3TfJOfk2xK4A9GViXLfyZ5O5BCQBJKwA6gYIrhbaepLa2diwA2fw/oSs/d8YHdiMKP5pZfgVCZNQAqUiLlQcBBLRP3W5yfrhYeMMNo4MB399gML0zXAiUF+e4L1xxRdkoif2iReQCeEN4vO8jd4x4Fn83zLIEgCAWAgIAUpA+wDyTAJhUAHyxJsC9eOedNUdA+JIFpsEJgHgCoCUvJWXEb6uzSS+NPgHit1+q8ML9PwzeSFlro/I/gC9I7Qm89MRjZ66T2oeTMQHfHQDk4l1yTuTxPfIkiel1qakDd4743E+Q6R2w2YOYWayD76ErAJLuRUGQlPQKxZO4cQFxcyiBN+9OAJZ3dqZB2GlKBKMtbV5EszNPbMw84sv/zExK/mDqdd3eGunZ1Ssb80CYLrXXUA9JbcPJFdffdC6Ar0UsAMa1V1y7WDTloQDxlaEGzZba7oY4Ig9ill8BOEuXsukiq+hAkbiPQjluTIp7T1Sc+EqKibp2JwCBgJY3AHIsARgMKZZWU8CaRrygUk1HxwwGhPfEvLx0mnwBktYk370AbCjOmfmagX1YWHjDDaNZ028iHQcTfiu5CghyUDoKCII2TgCYSP4gZvmDmJjFOy1mznznAMvbRhYaYk0DVklJ0jFKT8LQ8vFQ5k27f6AU1LFiR8QNYluPwmDp5rDgjglK/PYbNbASJ0CAfGVr/9nyBIDAj5suHgoHY4LOVSCkRzoOADP1uO1fGa5RSd6sVgDCxWEkru7sQrFc4XBeU9P+BNSGBJP4CkHn5+d7QgVPMUkfWh/nE3nie2AL0kpcASDQJwkAg9LFUbATmwDYA2ZWYCWdqHh/wYwZI/6ei7U4AQIMdkrU1LSOgcHiH3bwiNQ2XCxcuNABk5nCoUWIeXFZWdmw3k6JiAkySV6GWSMeADCJl1NxZmamfJudvJnPQ81v4gpA7O1/MGSwJMpR3XskACzNqgMqZfKI71i3SeW7azIAHisy9kg/BZESJwDkuGIFxL74HvHoIYCVxdlZUT/NMmrqzDMAHB3pOHZDSG/p3L5guGYsnMUnsHkCoMVJRJ9Jg650cQsgnh6IRqQPLfk6aY/CEFdTwK77SQJAStw0tT5WlhmEgvztF1xnL5BIIu6B2JqfnCzem+6wXHyJgai/+wcAYqMRx5DAhC8KjLbKTiPjBIDk43xGD2JiiEYnTc+NJhhiMaVYBWAwBmuidc+ovcYA0yVOCBgR41JhhbT87RdqxCcAzEwMyJamMNUbvWERFUltFY2QBADmcri2IfCwY2KCMAEwvwIAcITMjMy60Imlb2whW9McTsqZfRAuByNwp+VwRjxM4uuUHaWl03b4AKBm06YJuteV7egGxRKAwTDNFm5UAHmgAlCxoTvN55O96bBisysQRp7we69dlSAVp9mL2vb2sb3s/DfAFzIoh4DRILQDeJ0131uUliyWeb7imsUpHB3Nf4PJuPS/b0p+9Pe3dwzDRpoAjGNmMtLKYEyQrVAVCgh94kH6xuaJt99xHR1HM5SoiZJBsQRgEASaJjTtBgAFAMFAQNxVy+BYAjAYxdKVoZsLczLXW40lAsQpN11qa7KrfcWKlokg8d34u6XZ04xnjGtaO+b3stMI4HaASggYB8AB40gwLiaif1e1dz66bP360RL/rgPzGfgQQcoZlvQyyT/Qe4yFskhYoSKzBEBe/hZvEYwqNDvpUlum2LNmMAzx1X07MJAAKFbiBIBiCcC+MKVLzAhYZTeQyMCk0qW2xHqt1LaXtHibJQPG2gs1rR3zNdG/AKQe4rBLfM6ovw6UQ4eFwyxa1x0OFLlHDefrDZK994V2AHaLnomuAJhhtB2ShBUAhvZIA5yWvhwBIHFvkBepqamJI0D2eTCQTKn+/y2fq9WgtVJbLzKwAyBJZs2e+AFncLrU1oVaK7Ul4gyxrXxHPYD+sr8megpDHfMinDGmrfM7wz1HG2rRhxImNayHah/5XgKGvx2PgeeHa7PXuUF5FYUMHkIrVrRMlE4HKY9UAAjylwMFZ629SEY+bty4owDIRKl0/3NbAUYjgHCUjlUA9qCXx6RD+BYK8kYypUhNldpqN16eBClKl5oylNFb5U7tfB1A2nBsiOjb/SuTh45iJewuCT008HkyVE7Knb4ZjLuHdwpvCiJumDZ7QyxPAExeeHZQUPz2q4Hh9FZEMeLrUcSjzxMvSLbQypFf3St8UgEwEAHSY7qSN0iD8CLsKIMSl0cqAPLRlB2l0yaI7+GZ5ZUHYm1UASDQhQKzI3Zq36eHY6Chhep54UB/PGyLnoQfMVA91C9nxhUn5U4XrRLeBSl5AuCwbhafa/DZQMRrpbZRRrrQriO2cG4QwqtmAIDu/3nqvwKQVwBas7PFmtrexOQhpOXl7+iChVcgMOzypWG9ge9h11OUm/mh2dEsUn4k6GHZESujO+hQotXwYystnbYjrs/9LIDXD/GlW5loYUle1gui4PaAWbykip3eOLnqKet0sa3rkc8GZukmx7U2w/ACiuRX96ScTyoAOFTT0gG9xDQABsMsH9EKKHkDXDRBJFSnIhh24UsrD9xspD3Qv35YdDdPpIY1Ex1UZg1woUSrPlEVJT9/dldRTsbpBLqYgDcAuHv83+sBvsPn880uycl41jRGf3f3EQScIDTfMG/GpC3SsxUhU2qrERzx1cFl67uONBiDHPF/ftswa3EC4OvtbwLc1YUs60zV+I80AA8jErkA4Cb0fuSJ76cGEkUX1dpQ6pORKOu+IPGHOtCva1/V1tkDQRIwXF37x3+7ZMPl1y1uxTD7DcJA62N33CGuTgwsYHoCwBM1NTVxwbgJU30BtTU/P+MjeyECKqBPwSefe8OLETDS6GCQaOMqAb0lebOitvIzVOJ8OpelAilATG5+MEzpwm/nll2/V76BeWTRTLIi8shoikVILHO50SvbvggYIzQ0VFkTrx+2ca++DbIqwPBtGOUgXCw4K2Qw8au2fA38HoSqt0isoshAldiWmSrrm0Xy2AysHQkbKg+Fhsol4RJGhqFAmBchoQYAf9LIqhSNkW8TMlbF8iDy7UxeSqZEG88IbLoFUaazzmJFuj0Rq9oN14DBzwjPChkKeDrSMQwFYoMEgOgtqe2yVS1HAxCprQLkiYcfEYsqIACgNI14hVSblJeX+wDIVAD3EFRSFBeULxMgNlZO8xxMsgoAe0PqcwDRxjMmEi88GbiHF20BJGWeAJA4ARi+NvyOpHF/h3HDpFU2xvd+/FKkgzgU73R0ZDIgfQgFRiFYKT1bBdw8qS3gjQ2hYJLuSNnekpbYZDWWEc6oxCOzIN16yp/07inWSrxO0CvylJaRJVTeuk6RrTxlFk+UrFy5Mg5SFUA2vwJgYQJAGH5j2NNlZX0A3yk5LxQQcMd9990X9ddXQZcugVijA1UmY2hE4skDEI388ndjY2MCwNLxy5WLiNxDf9nhg2KSblvFnoqKiiDeJr7RYMMAACAASURBVATWyksPLWMaGhriIZQYJfKG1GcNcxyGKQizC4K8AmAEW/hwIYjGCBmYtLytbdhjkwl9zl0ANkrOtEy7GkNGwjzhgJmJgEvE9pr/YRQA0XypqWJda3R2FLDpiMnHQ/hiQIwR/+e3DQPiBIBY75acV4qFI1sACDp2BbAHPRgzGdI3DNM1o4c52dnZfYCsw4hJ1rOwF1ouJRxgZ9iz0ffdd+tHxLRYeqYtCHzjH5cssdFDEVLeaes8EYBYKppB4iuOFxsbE8DIF5p/nJ+TtVZ6drRAWp9oYC7XXvAqBhUAF3r391NBiZvWoJxYArAnGkFxMsXaG1cA+UQBAKKOZQabPohFFQQSNi3uCZPJfD6JRIQeunvJowAi2RD49EN33f5EBM8fMlrRpWJjwodFqYnLpeYTd9IJkDaogvxemAAggjgBcClWAdgHElcANpceN3t3tVKBxcIMcH0+Tzy0rOGSaJwSAJjYaBY9ypDdBxPJmlo+QdZDwNIP5z1cKBYnAAScJLb1Ba5EZLZINgRp55UROHfY1LS2JoKNxiafNhGKckCfMjj7bQPbqICZiVmcALhBH2qsBjTCWbZs/WjIq1l7VVMUi9XTECiaPDnqS3/hhMCy5jcAiiN0/x0ahA9i4wqArEmLhI2be6D7+hohrHyAcPrAFMOweeiOO7Yo7Z4JYL3obBn/CRKd9fhvfzts7f9IoOG7EYBoC1+/vXrK5HxmfEZqq3jkJwDvtHXPhnBDKgHvzk9Kij1n9oDG7jwGwi2ARLx3AgCQUDwFm0yyYi+iDe6StZKVr6MU4Tw/GSUADOkopbwKtovSadN2gCFdFDO1sn3TMdKzH7znV+sdUDHCMy62ih110uO/XTIiloC9uW7LJBBdY+CipWjqZPH4X03N+4kAS+//gz2+neKzowVWulRuTcvsReINlFBREgBYD6oAgIWqbYDRRi4vQtLxNwBK+tYcjZDwz0JmFQASiimZTMIM4g2pocP6TJOD/3jXktaA65wC4DkTP4fgmYQ+VfLInbeOGMnqhPjA9RBO5gAAmP9o8qLjxvs+DenOduLlC7Kzo3j749BgVuIrLiY94isgtmEFUc8QAKh9KgAkndn21BurFVjLKwAcqRG4UMCyCgAxCZXSdjsQVQAYSJOW4Pfyo/Ca2JbkI2q7eOJ3t2x++K7bLgDoK7ArFNTBTFc8fNdtX7jvvlutavOHkmXrP5oM4H8MXASDrnrQJAZmlqyJHjBG1IsrHYr+3yse1srrPdFBJ5YADIblI4Ac5zbs+e8K0ntr6VuehyEocQVAs+ul76d0OsSwFK+kc/Gj31m1LsXsbIAUl0M4igjg+Kq2bnFmvwf88F1LHgy4zmwGl0H+dwEA3WD8hHyB2Y/cveRhC7GFFSeu7/8AyCdzGH8vnZYoXhNd3tAwDiS//yeM/ASgqqMjF+LFVbS2+KgpI+KqKcxIVSVbi445Zq+XJCW9d2XhyJWXIYMeAMdLVwDCUjxDvEgJAED8icb1cHGDgXSTswGgMDm5HQYd+QRXPqo2iCd+d8vmR+66/WbaNvZIBr4E5j9jKD0ShC4AT4P5i7Rt7FEP333bTx+6444RN6FS2dqZT4yrzLzwL02sR7mjPgfhojUAm9etzhQvH4oWiJ3PGhiLdy94lYoVLemQJlS0b4+QD8J7ayUd9fIyzD7xtktS3vl+ErqF78GGFQBuEeswMWUBqDA7HyDQqww+VhQC6Ipl69ffXDpt2g7TOHbx0ENlOwE8BeCpsrIytXZTT4Z2MZuI0ogwAQCY8RFIf+i6vvczk0etKSsrG9Fz50uZHWrvuhdCRcoBqorSkt80iYPAiwyMX160yAPyt8xniU0Nemq8Cim3WGzL1DD4v/nAiJd8ZsYqAPuDAuIKMGvTGfhoQqoPkdDQ0TEuOzlZ1PhESq1lLV03Kl4Ss3cMrJcy0fVC86lOXMKVAH5rI5bBDDzYGwf+8Swz2ruvZuB4Ex/EeomJ/du1TckAxA8/YnrB5PxooGbTpgm61xXvQOCgGvFXILYhQqn0jpFJrxj83xRLmwC9VbK2Aht8T0xGCKMOLV8TvYN5qtSWnb41UluQeFPZXpyQmvQ2AHEcxLS4oUGuJ3G4U9XWnc3gW42cEN7NT01+1sSFD7gc8qmgHYH4wIhPAHhn4AxIN9aB6mP3//vCkC+VcvdT4VTS0TUGxRKAQZDBLL/JCGG0wZDLGmt20qW2Aw0urTJrNlnXuhsiYgYeNXAxbduUrstsxHK4UdvePhbQSwHxaDMAgICfmIz+MTMxQa6SSPzi/DlzRrz4DROdK7YFx97+B1FT0zoG8gbAjSfmZO2jUyKeAiCD1a1ehaHF3xOTCYKoQ0GcuTN4hsnRBNQJTadW1q42OnsXjtKPQj4NAGL8bEXLZrORyMOQXlZ3AxD1X3wCV+RPTTR6+66obzoZwCypPTGMlAejgf71v/R5qT0DZtsXPYiO35YPcUVl//1NCiDhGGCsAjAYkysAEw2BaINYtRz6q/aPAqWbnM376XQdsq1yTDaW7SZ/6tRmNtNwTwmMCvzcRiyHC1VtHV8G6HJDN0xQ3zRVOCWQgfYA9Th9Y/9ucn40sGX8xDOB/iZTAVvHb0qMzf8PQsMRKyrSgRMA2YOHiWNNgINQBuJIXroCSKDAWqktg9NNziamd8W2gIFk6d4o1neYeaCrq9u6Cu1E422q2zpPBegec0/8SEFqotHonX9FcxYBnzOI4en8/LTtJjFEA1rjS1JbIryanR17wdwXFt//g9UBEwDZUgHtIeU6S5j1RXin8SsvJaUHQIfIWJNZGZ4D4lE+Zjrd6Ow9yE9N/guAlQYuFMD3L1u/Xrxh8nCgakPHcQw8D/G63QEIW5SPvmcaDyv+FgzGDzXhftMYIs2y9etHE+Ecqb0GRnwFxDbMTCRvAAy4PXH73aioIB3ZUmgXBuNZHIMKAHtpCqCftSIrxceayPIW5c1pgbgRELOWNTRlSs/eEyLSYPqFiQ8Gcn1xowwrCd6leuPGmXDoHzDR+h+AgcX5SUltJj7erm1KJoLJNcTK0pzMEb/8Js6XcDaA8ULzYBwHn7cZjxeofHdNJgs3KoJ4RWnp/rVFfACWA8OXq2TtLhcF42E0Ux+E14ceTABaAAy/hM2Y+E7b5mkADBbO0NsALxRZanwGlubwe1KnPDm2vasM8t3dAONrle2drxelJP3JRkxeYXlnZ1ogiJcJMJZwBvB64dTEB0ydOMC3IVf+A5hG1Nt/6/yyoymI0wAuAmg2A0cReKy+9A+T9bhRcKeMQzBtInqzktGbcxSCKUNpCaBXj09NtbnHwhs4vEBuTAesivrA9ASIh5sAtI3bnFwuD8ibMOntUiU6BRJrlkcpH0gNXeXmwiABYOI3iSFLABjnwVICsIAoWNne8Qti+oOJH2LcW/1hx+qCI5P3EfI4HKn+sHN2MEgvkWG/yAAfuQh+2bTxr2bl2tRgMGiydngHxfeZjI+GhZZTy0Yl7MBlBFyB4J530rz7k09t64Xa1gtf+0dIaPgQY1/pF6ALzEhCz2nHYNsZx4BHHaiZXY/4CYiQQPxpCAujfBCFU7U2dcqfQBhW4xQR/zDWpLEvumeUWAAHzMY76aMJAkvH8UAG+64BwKfVPw3MF/jr14jFiAazbmrSQwD2e/82DMazohdrNm6UVxI8QnVbVyErvAU7D38w4ZqS1NS1pn4CweD3YfD2T8QPDV7UEk3wwoVOW1HZNaN6sYaI7wUNvyEtrqUTEx/4N9K+9gjGP7ccFNxH6bivty8+lOusRyRLl7IDptOk9qT5gBMVahGRS6QvBDC0TWqMPxSkJP9RGoyXGbhnEXXwmi7CiTa0S+IEAMxGqnwFeTPfh1yNz2HNF5icvyeLiFyArgFgqq+forV6uaqjw0bJe0RS1dpxFoNfg6XfFQI/UpSS9ISpn4oVLekKRouHNAfVr03jCBWtJWVz2tdnV4L4bjCnmvpTW3dg4sPLMPVbTyFuzV7V/n+eNH3iZlP/XuOoY5qLAEyS2DLwn+K8rAPqsigAKJg6dY1ip5CBg21f2gGi7xekJn5NEshhhDCLJ09VANYdmdgMYTIEQx13AACRWEmMFF9kfP4eFKYmVgO414KrDLh4ZXlnp3C96siEmam6rXMxiP4KYKwNnwTUEQevtuLL0bexcJwaABh4vnheRlTuZ2gr+fFCYq4G+ATbvuPWb0LKd/6Mca8MDMswxcr/+0Exnyk2ZnrloL53/Y/8tMn/KUpNOkmzOhOMP4BpGYCVYH4FRN/TrppVmJL4C9O7Mq9D4kU47KkKQP+bL/bZPjVEspa3tck6XnfBBqNEjPkV9R8cY3T+IHr74n4A6WjkXtDcQBDLqj/snG3uK/qp3PDxlJr2rhcYWAK5CtreELYohy/MTzOft19W13gKwF8w8cGE203jCAVtRWXXgOlJAONCdkjQxaR7XsMRT1UHdAL9NWTnjGjo02JTpQ96Heob/B+K06b8E4DJHephDUsrAGy6Cjf6IEYdEwokpi7FlaJ/vluEr2/zK8H4CZsgbK5U7FwJ4Ebp+YM5afrEzZVtHdcRaKmpLwKms8JbNe1d5+SnJFbaiC8aqdq4sRS690kGpll0G2Stv3RCytQmU0fMrCrrm39p6Oa1aBz9ay0quwSk7wJIPJI7HCY8WRk34U9VXwOiMxmKFG/WrZsEBCSfoQDgshr1r4N9gcm+7Bj7g4UJAJGnKgAAwETiUVHNbCTLm5+fH4BBAsHgyweWb1ijKDX5aQC/s+QuUTO/Ud3WdZ0lf1FDQ0fHuKq2ztug1Ruw+/AHE64uSpv6sg1fVfXN1wAwKo2zwo9txGKT1tKyk4n4wXA9/HdDekl7cdl5YT0zyolH3xkQivUBVFOaPW3Twb4ilgDYhqSb8HjssmXeUn1j5Yr1vInJWJeftNFSlSmBuB2m2vL70LNz27cA2BrnS2Dwb6vauv5cs2mTVHc9qqhu6/hCj0urANyE/VQoTSCi/y1KSTIaydxFTUPz0Qz8n1E8wEslczOjSvN+fUnZZKXxBCx/74cGEYMf/LDgB1aTvpGMZiW//4c+ZKIbSwCso8WjPL7xvZ6qAqxLTn4PwMciY+ITTGVwneBHrwFyxUpSfAMzW/0dWTBjxk7t8Bch/b7sF77Q7XVrq9o7xetXI01Na9ecqraulxj0NICj7J/AdxekJP7Qlregy/dArnYHAEyKou7tP45xC4OPjGAIk5Xji6lfDkDE4vt/VnTIq/xYAmAZFlcAAO3SdJuxRJr+EVP2C80TfE7CKSbn918D8ENiB4ysyromayOBuyhOTm4k8FdhPhq4GwKmg/HXqrbO5yva2tJt+Q01/o0bc6vaOp/UxA2AQbfzQaGHClKSrrflrbKu+SIAZxs5YfylcG5GtZ2I7LCxqCyX+38uI80FbcVlp0Y6iEizrK45B/IrsC07O9cfsj8olgBYhjTL9cQdnW4vkuiAmQxKnGrYEtWDccD3w+RBS1RmuwoAAAWpyX8G8Q22/QI4z4GvobKtc4l/40Zrgka2qW7rKqxq63xeafUugC8iRJ9FxHhgbcqUK21NL/lrG49iaFOlyD5o+q6NeGyiib+H6HkmWKvWjFQUtHy6hPjVBQsWBA99Rgy7ELVITZkp3V4gUQKZJADDlqjeh4LcWWsAvG7gIruqbs0XTePYH4Upyb8Bs9HCoAMwhoDFSquWyraO39a0bjo6BGcMm+VtbUlV7R3fqGrrrGZwJYDzINXOHgpMd+anJl41MJJq7o5ZAfSIdLJkj7h+GW1z/+2lZckAXRjpOD6BT28tKZsT6SgiC8kTAD50+R+IJQDW0U6COAEgsNkq3CgkAUE/INySSMiyIX9LhLtM7FnxzQ0NDSFZ11yQmvQDYhgvojkAowl0nSZ3TVVb5z8q2zsvCvd64ZpNmyZUtXUsqmrr/GsQvg/BdCeA/BAfy2D+UWFa4jdt6pZU1TV9FwSDpSwAgLZgQiAUSZ8Zrv4vgO3oLFhCMV8c6RgixYAOybFSe3adWAIQCQbGLoQNXpRuL5LoIC8lpQfM/5bas3aMqwCFczOeB0H+xsXI2qoTrN0h7wkR8bbUxP8GYKwPcBAcAGcR43Gfb1R7VXvnY1VtHV9e3rrZes9JTWvrmOqN3Z+qau34v6q2zkrd63YD9BSAc2FLyOfg9DLhksK05J/bdLqsrvEUJrrZ1A8xvjt/zpytNmKyCVu4brMNE86KdAyRgtgRLTPrh1eXzJuxdihfGYFRj8OCtQAEevbkuQoAADDoJQI+JbS+ADB7gyciXVHb/GsivkfshPGTqoaWxwuzZ4inCg7EAqLgUuaL0tu7ugFYkac9CEeAcTFAFwcpiKq2zmYGlini1WB8QKTfjwPW5KWk9BzIQW17+9gdROOUdo4G8yxSdAwYs5h5liYcA63jwz1CPkC7Yl6Yn5p8MEnzYTOw6e9PMP+8fL0wNyPqNv7xwoVO+3rMj3Qc+8A0b9MJ35kw+Z1bP4p0KOGGwQulv0FE9MxQvzaWAISGFogSAJ5WXl7uG0rzxkhCg/7hgEWKaQycXNXRkVKYnGz04I0LjH7Yjd9+MwNSieHxruveAuAKkzgOxMA99TXVbZ0bGSgLxRkHIIOADB5YNcrsoBdAVVsnE7CFga0AggDiCBjHwMReBikGAAYIYB6oskfkmY9dZ7/tc7Do+KTkVptuGxoa4rcGg88AMF2Cs107uCoapdQ7PpydDrCVHQt2YacvLn4OAM+qXe6P6to1s13ouVJ71+UhJwCxK4CQwNI+AN+oiekhmIGOLCVpiasAWis0d8hVRlrrAJCfn7adCUtMfBBwmb9+jbCSMTQKUpNuZsbVAKw0rhlA3L+B7GgAMwFMG/j3SD7m9wcD+KWamrjg+KQkqw9/ANimE+4GMOzVt4Mh4ObS7Exj+eFQ4Lq+qF0zrUGZkY4h3AQNuv8JaC49LmvIQmOxBCAUsForNXWUjtpfRhMILN7Op8FWuvB9vWPuASAf0wQIzPfW1taG9G2pKC3p95rVZ2FleZCnaSOlzixMTbopnyhg27m/vvF7zLjSgqvl27vX/8qCn5CgSItWzYYDIhW1sYUKMun+B/95OF8dSwBCAEOLJwE0kGMzluiBxZu+CCj1b+g2rowMVAFuMfPCM7ZjbMgXlhSnTfmnz4d5AN4I9VkjEsJjigO5BVOnHHTdqZSK+sZFYLLRSLhTg66I5ms9BkZFOoYDwrC6jyPa8a9ozgLxcVL7ASXNIRNLAEKAD7RGbExa0DsQ/VBK0r8AlsokK+XjS23EsXkU3wtA/vcDgAj/7a9r/JyNeA7G8UlJrWtTEk8H0c9hUTVwZENrwfyZwpSkS/PT0sSqmwfD/17TAsX0CCx8PjLTt0pzM+othBUyCNgZ6RgOCMF4ZfNIgpQ26P6nlqKcjGEtYIslACFgjK/3AwB9MmvyZAKQTxQA01/EDpi/yrs61Qz4bFZWLxMtNvUDoj8se/f9kGumLyJyC1MSf0TA6QBWh/q8KGY7AWWK+7IL05LF10mHwl/bWAyN5xlIsODuryV5Gba2P4YMzWpzpGM4EMw6amOzDTMTE10mdkD85+E2mcYSgBCQnZ3dB/mH9bFLl7Jw/WN0Q44ymXXPqN7YfZqNOEpyMp4Fo9zICSNRKefpUAkEDaYgNen1sZsS80D0feCweityGXgUWs0pSE26OT8tLWR/9sr31uSB6EWYLfnZRWtfkG30D4QcRyMqmxMBgEhFlWJiKKmsXXMigNlSe+2qYd3/A7EEIGQQWFr2G33UnLVZVoOJElqSJ78GYKPYAdv7QCVH3YD+8TYTSrbp+LBtLsvOpr7ClMRfBIM0i4Gomye3DAP4Gyt9QlFq0mWFR05ZH8rDqmub5rLW/0T/pIMpAVZYdPLxWZ0WfIWc5PSGdQC2RTqOfSE3Xh9GVS9lsIiJsa4kb8awl0vFEoCQQXViSwp68hpgYNb9WQMX59e0tlpZmVw0d2YtCL829cNMV1fWNX3dRkxDpXRa4odFqUmXMfPJAB1y5/cIo5dBf9RQcwtTk84tmjq1NtQH+uuaTnAVygEk2/DHhBtL5mYa7MAIL/T00y4Aq+JJllg+pbLM4trs6OWt1avHAyS+/yeiZyQaE7EEIES4DHkCwOTRSQBAk3rEwDyBle9rtmLx9Y4pA8zLnwzcVVHXFHYp1aK05DcLUxPPYkYBEZ7rD2XEsgHAz5QPM4pSE79anDplZTgO9b/bPB/Aq2BYSSwBeqwkJ9N0W2DYIfCLkY5hHwgh6/WINpxe54smYkyaXdH1aiwBCBHaDYoTAIhUBEcGxSlT/ACJu6KZ6frGxkYbDVrIz0/bToyvw/zB6SPgqYraxuNtxDVcitKSagpSks4ncnIZfJfBtEW42Qnws0w4d21KYnphatKP85OSTHQahkVlffM5UPwygAk2/BGwwtc3OqzVIFtwXOBJwL6WgglaBR+PdAzhgoi+YmC+qiRvlkgtMZYAhIj5x89pBSD9IA71trSIwqTvNzBP2TJ+grUtYUV5ma8BJN8R8AnjFdFL/oZG8QYvUwpSJr9XlJp8/dhNSWlE9HmAn4V0E2OIYGAbEZ4D45I+H5ILU5MvLEpJ+putlb1DxV/beA0zPwdYmzNfHwgGz8nPD12TYihJffMXnQwe1gx5KGHQK0e+/fP3Ix1HOBj4zJCrTRL+KDWNJQChRH4NkFZZu9qTi4EAoK83/jEAO6T2zHSjjZHAXewYr24CYDyrzUASXCqvrl0j7uS1QXY29RWkJD5fmJp8YW9fXCoTLh5YOSwWqDIgwP1a7reD6IzJ27YkFqQknV+YlvT4/KSksG/FY2aqqG0sA9Hd6N+SaIOtpNS5A0n/iEUp+gWiRW9Cuz+LdAhhI2j09h9UynlMahxtut6ewl/fdAcY/yMyJr60OCdL/Bcb7VS2dT5CgFjch8BnF6QmW7u3rGr44Dh2ld/S/PcGh9UZBXkzo+4NprK9fQagTiNWJzL4WAXMYjud70C/oMwqAtczqJ6AGuJAVShH94bDihUtE3eq4KNEdI5FtwEQn1OckzWk/evRTlvxT34H4L8jGwU9neovWxTZGMJDTU1NXDB+4gYIG1AZ+EtJbuYF0vNj2wBDCDNVk/B6mTWdCMCzCYDDfJ8mEicAGvRjANYSgMLsWe9W1DctJsZvLLg7yiX9hr9+zaeLc2aa9IJYpyglpQXAAwP/AACWt7UlBdk5BqDZUDSFWE9kYByAcYAaB+YJROgFaOBBzt0g6obmLgZ1EbstTrxqmZeY2BaN2+4AwF+/JreX3WfI7nIZTYwri3K98fAHgD5f7/cT9OhzWeuQi1ztH+oOUuCGyJwdfgIJk84lZvH0iSISl/+BWAUgpFSsaEknx5WWXeuLczM92wwIAJVtnX4CiqT2DJxTlJr0d6sx1TU+xiBbPQabFfTnC3Nn/duSvxgC/PWNl4Lp97B33w8ADObrivOybPSPRBV1z1e+mnjby6dRMOwLKTU0n5da9VOrv9PRjL+uqRzAqULz1h3d66eb7JmI9QCEkJJ5M9aif7xJQvabdes8vQmLiI3m8An4mc1eAABwt426CsCw9LQPwiQN9Yq/vvESS/5iDAN/Y+MR/tqmR9Cv6295qQx934sP/6rWzqt2Fs48bfP1pwMqvO+HDL7pcHr4D0wNnSp2wPSw6ZKpWAIQcqhCaKh8CBRbDSXKWDs16c8Amg1czKtu6z7fVjwAUFo6bYcDvRAEW4tm4sH0SEVtYxkzx37fwkTFe00nYgfVguR9JgfhZ8W5GYZbJaOPdzo6MkH4JQD0nDwLm75+CliF40eWmYi/n+b/qbEw10iCSJlcdTA0HjSNIfaBFGoYYkUwAkpthhJtLCJyQWwmmkL806Vsd3dCQe6sNRr4HOxtSSMi+kllffNfvV7ViTQ1Na1j/LVNt5PGGwDSbftn4EfFuZk/tu030jQ0cLx26UnssQeh59Nz0f3tM6FHh3LdBe0A8OWUip/+IoSHRB39i8TYoNGR3iyel2G8JyGWAIQYUkYJwEk2Y4lGEqD/YChckz29resqawENUJqTuYzAl8HuWNTZ8QhUV73XXGDRZ4wB/PVrPhWM314Pwo2wN+K3CwbTN0tyM39u2W9UsH1y188YOGHwf99RlIGO2xehb1ZKKI6tU4ziVP9PHw6F82hGke9aAOLMipiNmv92+7HhJMaBKS8v942ecvQWocxjXzA+mDh/zpywz0uHk6q2zp8C+JGBi864nb5Z82ZM2mIrpl1U1jXewKBfWXYbAPFP/rMqc8miReEVwPEiby1fnebzxd0KcKh6LVwi/npRTtYDh/7SkUdl68YzidSLONgLoWaMfXUlJjxVDafbeG9QBxP9IjUBd9HrZaYLuUYctbW1Y3fQmP8ANFnoYrOvb8xRNkSnYglAGPDXNb0KQLTKloDzi3Izn7McUlRRs2nTBN3rrgEg/YUAE35dlJL0LYth7aayvvknzFwWAtdvkqYri47L+CAEvj1PeUvLqFEfuzcS0fdMdNQPwQ4muqQkJ8NkiVXUsrx18/QgBWuAIe5CCLoY+8YHGPvaKiSsah2uiHYVmB7mIB5Ke6csKrQhIoG/tvGaASEqEQS+tSg367s2YoklAGHAX9dk8oZ7X3Fu5ojUFx8Ola0dPyAik/JqQDHl5qclhmR9qL++aQkYi0Pgeicx/8wJfHRbfn5+VGmxRyvMrCrfa7oITD9DCO7596CDWZ8n1VmPdpatXz/a5xv1NoB5EntnUw8S6jcg4f12PfrNxmpn287xAI0HmABsA6EVTO8DqGIVKE9b9r/rrP4BRiDMrCrrm1cBmCV0EdDanVF63OwPbcQTSwDCQFVt8+ma+F8SWwb+U5KbOd12TNHGW52d4+ODaAaQJHbC/EpBatKZoRCjYWaqrG/6FUDftO17gJUgvsErinKhgJmV/72mm/RvQgAAIABJREFULxBTGYBjQnzaagd8dkHurDWhPSdyVLV1PATQ5aZ+CCgrSE262UJInqeitvFcIvqr1J7AjxflZlm76oo1AYaBsb6dbwIQXZwRcHTVu43ZlkOKOuYnJW0l4DYjJ0SfqmrvvsxSSINcExfnZt1AhP8NhX8Ax4Lp5Yraxhcq6j8I8cNtZFFeXu6rrGu+qLK+eQUxPYVQP/wJL2tn1Inefvh3XWPj4Q/C29tSEkP1O+E5FNGNJvYMsjoqGUsAwkB2dnYfgNek9tqhsyyGE7UQB+4GYLRQhaB/6d+4caqlkPahKCfzhwR8J1T+iegcYvWev655aeW7zdIyoScob2gY569t/p/Rk6c1MfhxhH5NNhP41v+syji7NHvaphCfFTGqP9x4ImAmwjXAxwz30gVEh10jnwT/u83zGTjFwMXrxbmZ71gLCLEEIGwQ0T+ktsz4jM1YopX8tLTtDPqemReaorS6w05E+6coN3MJiL4KIFR39grghay4wV/b9Ejle2vyQnROVFJR23h8ZX3jPaPdhA0gvgOEcFyBfcTMny/KzfqulyczqjdunMlKPQuDEbTdMK4Z2C0RYygoNtxwyNY/12I9AGHCcC9A3w6nd8qC7Gzj+Ztoh5mpqr2rwmRHAACAcF5hStILlsLaL/76NZ8C66cBTAjlOQAYoFeI8Jt1q2a+5MUHVE3N+4nBOLVoILE6PtzHw6WLbAirRDM1ra2JGnHLQMgydsZ4ojAtydbODM9TUd94KjGVix0QGovmZswhIqvrmmMVgDAxsBdgldA8fpROONtiOFELETGT+iaGO2A0GMb9b7e3i7dsDYXinJmvOIz5ANaG8hwABPCnmflvR89pXuuva7y5snb1jBCfGXLerFs3yV/f/BV/XfPLwXinbWA0KpwPf03gW319W0q9/vAvb2kZpVXcc1Ye/qC1apRzjbmfwwdiZdYkyXyn7Yc/EKsAhJXKuuZfMlg2q854tjgv80LLIUUtVe2dj4Jh2u36UkFK4mdDvaK2ctWqKRyMexyMM0N5zj4QVzHjKe1znjnx2JlRP2LFzFS9sjFPu85ZBD6LgRMRuZXkG6BwWfHcTPlb2QiBmal6Y9ejYNh4Y98J0MmFqYnVFnwdFlTWNp3GhFcNXGwezT3T8vLyeqwFNUAsAQgjAyVj6ZjXjmB8cKrXVQF3sWx915GOj1dT/156MQS6riA1USy6MVSWLmVn+jHNNzPj+4jM71UDGP9gopfH8LaKUHxYDJelS9lJz27MYVfNZ8KJYJwCIDXCYTHADwUQf+NJudM3RziWsFDZ1rmEYEfDgomvLEpJ9qQiYqjw1ze9if5KoRC+pTg3y7A3av/EEoAw8mJjY8LkHapbqlrGoEtKcjMetx1XtFLd2nkDE0xleHcqcgvzU1LqrQR1CJbVNp2lCA8CCIl4+hAJAngXhLcBfkcprh+LwMqBaZSQUFPTPCEYp48BUS4DOQrI4f5y/vhDGocJApqJ6euFeRkmb2MjiqrWjh+CyLD5bADCfYUpSZ4XJbNJRV3zGQR+xcDFdpCaWZwzc6O1oPYglgCEmYq6pmcJEK2wJaIXinIyzrMdU7TCzKq6rftNEJtuRXxfx6vC4ilTPrYS2CF4u7YpWYEfIKJzwnHeEAkAWANgDYhaSPNaAB1Q1A3W3YppK0hvB4CAM3oL9QWP8DkBFUBcvII7lliNAekpIJ6iWSUCmEqkjwZTOsAzDHTNw0GAgV/ztoSy0tJpOyIdTLiobO+4nph+Y8ld1aRtW07OysrqteTvsMBf2/QWCCeKHTBuL87LDIUCKYBYAhB2/LVNXwLhTxJbAnrjXSdl3rwZ1pfeRCs17e05mp0amI4tEf+lYGrShaHuB9hFv3Jg81UAliD0UwIxDsw/NJxvlebOCIlEdLRS1dZxBUB/hJXPeO524eaXpKauNfd1+OCvb/w0mF6We6Ael3nmiXmZHfai2pvYFECY2eHr/RsA0SIMBhJ2Ou7nLYcU1eSnpNSDaImxI6bzq9u7QrIsaH/0Kwdm3qe1mw3g+XCdG2M37wN0dnFu5mcPt4d/ZXvnfwH0AOy84AWZ1KLYw394MDMBMLp6YfDdoXz4A7EEIOz0z/LT36X2BCyyGc9IYNLWzT8HYOND/Jbqts5TLfgZMqXHzf6wODfz82D6AoD14Tz7MOVDMF/r69uSU5yb8WKkgwk31a0bLyTGw7D02U6Ma4tSEsUqpocrle81XQymQgMX2+L6XDNp9CEQSwAiAeulBtZnVDW0RLLBLOxkZWX1MuNSmCvv+RhYWr1x40wbcQ2H4ryMZ3x9Y+YQURmEFaAYB6UDTDfobQlZxXlZ9xyOmxWrW7suZVJPAYiz4pD5loK0pPus+DqMqKlpHQOmX5h54bvy82d32YnowMQSgAige0b9HcLlQADitKuvsBjOiKAoLakGRD+x4CqJtfrn8rY2+dZBIfn5aduLcjJuVoQ5IDwCwHOKfhGglRjfHs09M4vzMu44nJr89qS6tfPrTPwQAMeGPwI9XZCa9AMbvg433IQdiwEcZeBiq69P/9JWPAcjlgBEgIEPKQOZWr6KmQ+7v7uCqVNuJcCGcEtGEL5nGhsbEyz4GjaFOZnri3MyL9dw5oLxKGKJwPAhNILpmzvGOxlFeZm3RYPuQaSobutczITfwdLnOQNvbdu59bJQKM95nWXvvn8ks5nmAhN+G463fyCWAEQQfsrAeGZ13ZoF1kIZIRCRdl11GQAbm9pO2jxu4sMDzToRoTR3xurivMzLNGgeQI8hdMuFvIIL4O+a8ZmiuRmzi/My7lwwY8bOSAcVSSrbur7D/ZMmtn6Om+MQvOBw/75KUY7zf1KdlwE+ZpUQlrd/IJYARIxNo/ESgI+k9lrxlRbDGTEUHzVlA8BXW3L3xer2LvMJA0NKczPqi3MzLlWOczQz3wzgsFCoGwYfEvhWdp3M4tzMc0rzMl8K1zhntFLO7Ktu6/wdgW+x6LZNKX3m8ampnRZ9HjZU1DYeb0G+/DfhXEUd0wGIIJX1TfczQ/QgJ6DX6XOPClepKNqoau26E8TfsOGLgLKC1CSzZR0WKW9oGDcqGP8lUrjKsJN4JLMFwHOk+cnCvMxXYuXoT2jo6BjX49KfANgUmuoichYUpEx+z6LPwwZmpsq65jeNRH8IXQlBJyucOi+xBCCCVNR+UESk/FJ7Bt9YkptlKpU7Iiln9o1t73oVwMk2/DHou0Wpibfa8GUTf/2aXLD7ZYAWAjgy0vGEmI8J/IJmPLV5DP752Zjq3D7UdHam6iD+BrtbEz9mxulFaUk1Fn0eVlTUNy4iJpNrXQB8XXFuVsj3luxJLAGIMP66ploAuf/f3p3Hx1VXjR//nDuTpBtLm6VNodA2iS2EJCxpki4glYdVcAOKG6I8LC6ACKJIixTaoiAoj/ooAgKiohQeFUSgPP4IQtskbUpNQkppkoZSadMsLXRvMnPP74+UR6wsbeY7c2cm5/2Pr5dmzjlIMvfce7/f8x3Yp3V1ZUnh0YP1cWjtpk2jPfVWoE4ujArytYr8nJ87iOWcqnrLGtun++LPEvgEsa0yTiaNCs+IxzPh3W8uHozb9/bX8o7Nx6hG/wIc4TDsTlTPrBib94LDmIPK0qXrh3oj9qwCxscQZtWunvVlM2fOjDgqa79YAxCwusbWKxR+MtDPeyr/MZgON9nX8jc2TVfPq8bN3mcf5IpkbQLeaWljW0lI9QwVzgCmAUOCrmk/KPAKsESUxYo+V1VW9I+gi0oFdR1dZ4vyW+Bgh2F3iyfnTBmd81eHMQed2oa2WxGN6bQ+XzlzWlnhM65q2l/WAATsxcZ1IzPoewMYOsAQT1eVFp7lsqZUU7eh68vSvw3KBRX49pT83LhP4XLlqZaWrJF7pNyLMk2FGcAJBP+6wBdoV6VB0SbP8+qjXubSRC5wSgeq6i3v6L4JmIPbRdu9Ipw/ZUzuEw5jDjpLG9tKPHQFMdyACDxTWVp4psOyDiS3CVptQ+tDCBcO8OPq+VpScWxRs9OiUszyjV13Kjib9S/obVPy8653FS/RljavHyX+7lKQElGZ1H9iH+OBCQy82dxXRGGDB+0+vOaJtONru4//6u5wX3P/2GszULU9PQeH+vxfqeL6/I89InLBlDE5dkZFDFTVq2tauxS0MoYwEUJaVlVctMpZYQfAGoAkUNew9kQVP4Z3cPpAVWnRxe4qSj39d0o9C0HPdRVT4IflY3K+mW5rLOpeeSXb683K6fP8bPE1G5FsgUxVCSH/fMTsoTsUehXUQ99UvB2q0R4Nez2Zu6SrvLxgwNtYzfur27SpTHzvD4DTsdUK2z04Z0p+7vMu4w5GNU2tV4oS43HL8t9VpQVXuKloANmDSmz+VW1jazNw9EA+K7AnFA5PKD96/EbHZaWUpevXDw2Hs54DqXIY9pEdu7d/0QajmESp29h9kaA/A4a5jCuwJSreWVVjsge888j0W/zS6rHhcHgVsR31/Wa4N1oU5FZuGwSUJBT95cA/S1ZfNBJYF5kspo0bt8vTyDkoLQ7DXjB8yPDqIM4OMINLbU/Pwcs6un4t6IM4vvgDnRrVj9jF341wOPxzYrv4I+gtQc9xsQYgSchQ7iOGyYCifKW6uXmEw5JSUvnYsd2hsJ4FbHAXVaoiGl6yorOz0F1MY/5p2YbOk6TXb3QwSe7d/MNT+XDF4Xl/j0PsQae2oeU84GOxxBBo6xnKzxyVNGDWACSJqqKiraAPxBBi5BA/60vOCkphJ+Tltfp4pwLuRpoKRdEotcs3df+Hs5hm0KtXzajb0L0AkecEjnQdX6DRj3pTy8fmrHYdezCqr287BJEY3/uDIlclw6ArawCSSDQcugsY8CAIUa57KqAT7pJNVX72KvH1dASHYzUlW319ZllH9/VBHiJk0kPNhu6j/I7uxSJ6A46O8f1XsmhPmBn952cYFyKZehuQH1MQ4fdVpQVPuakoNtYAJJHpR09cBzwaQ4hx2bvkUlf1pLoph+Wt9JAzgG0Ow4ZQ/d7yju4nVrZvOdRhXDNI1Ktm1G3s/nZIdCUQl7MeFLnfG5N9zozcXJe/+4NabdPaU4HLYgzzVqQvcq2Lelywu5gkU9vYegIQy0zujeHeYYXl5WN3uqop1S3b2PVh4M/AQY5Dv6qef0Hl6NENjuOaNFW3qWeq+P69QHGcUigiN1SMyXF5SuCgV1//ak4kM9RIjHf/InpJZUnRgBd8u2ZPAJJMVWnhCpTqGELkR7J2ujouNy1U5Of+zRfvNHF/zO4k8b265Ru6vmGvBMz7WdzVddDyjd0/Ft9fTPwu/rsQ/Yxd/N2LZIZ/RqyP/pEXKo4pvN9JQY5YA5CExJM7Ywxx/eLVq13f7aa0qjHZtRrVjwCdjkNnqfDD5Ru7Fr3U1TXWcWyT4lRV6jq6PpMZYZWiVxK/79y1RHVaxZi8GE+kM/uqaWi5BPT8WGII7FGJfjnZhopZA5CEKo6Z+BQw8NG+Sk7GntCV7ipKDxWH5/09qnIywhvOg4ucGonQsHxj53nOY5uUtGxj95TlG3sWi/Iw8T298elIJHOKbfNzb3njmokiEvOR6z7Mn1ryoVdc1OSSNQBJSERUlJgOo1GRb65c2W6L1PYxdWzOKyL+SQqtcQifo8ijyzu6/mhPAwav+q6u/GUbux8ArUV0WhxTKXDLlDE5Z08bd4gdsuRYdXV1OEroYWJfO9R8cGjP7S5qcs0agCS17tWC3wCvxhBi5J5QNGlWmyaTKaNHrw1p31SEJfGIr8onIhFWLd/QdbmtDRg8mjs7R9Rt6JztR3gV9IvE8/tVeFOFj1Xk594kIn7c8gxiQ7MPvzHGg34AfF+4rLi4uNdJUY7Zl1MSq2to+4yKPhxDiF3RsHfU3u2FZh/V7e1Dhg8Z8StgVhzTvKief6XtFEhf/WdQDPkq8G0gESOjl3me/9ny0aPbEpBrUFra1DrNU14g1vkMIj+rKin4mpuq3LMGIImpqlfb1NYgcMyAgwi/ryop/IzDstKKqsqyju6bBG6KYxpf4bfq+ddVjR69KY55TAI1N2vmzpHdX1ThJiARr3x8VH46fEv2dcXFkpR3lOmgtqXlYHbJSmI/iXFtJDNy7IzJk5N2FoM1AEmutqHtXEQfiyWGh//hitIPxXDccPqr6+i6RJSfAvGbpCi8qT7zQvk5PykX6YtbHhNX/Xf8Q78I+h1gXILSvo7qhRVj8+zvOI5UVeqa1j4S66p/ICLoSZWlRTVOCosTawCSnKpKbVNbncCUgcYQWFlRUlBu7wrf3/KN3RWKPkb8v9TbROXm9vzsh2eJROOcyzhSv2FDji8ZXwW+BuQlMPUjGbvDXz5uwkiHY63Nu6lrbP2Wwm2xxlHVm6eWFc11UFJcWQOQAuqa2s5W1T/HFkUuriotiOWwoUHhpY0bc6OEH1GYGe9cAq+o6M1TRuc+as1Z8lrR2VkYjco1wEW4P6b3PQls8ZGrK/NzHkpUzsGs9uXWmfg8C4RjDFUf7n1zWnl5edI/5RsUDYDqLzLo7DwH5AyEI4AoSDvKn8m74dlkG87wbmobW2uAqhhCbAr3yqTy8oIBHzk8WFSrhod3dH8PuJYE/I0INCq64LUxuf9jTwSSg6p6yzZ2niqeXI7Kx0nwjilFHpOQf2VFXl5HIvMOVvWrXsuPRCIriH3a3w7xOb7y2II1TgqLs7RvALRr3smo3AMUvcePvITvf1HGfLcpkXUdqGUNbaf4on+NJYagt1WWFl3vqqZ0t7yj++Oqeh+Qk6CU7YjeNdzj/uK8vO0JymneofYfPYd7If9LIBeDjk94AcIbgnxtypicxxOee5Bqbm7O3BbNeh6YGmusZJv1/0HSugHQTfPPRfgdkPEBP7odOFPy5ixOQFkDVtvY+jjwsRhC9Hq+Hl9xbNHApwwOMvVdXfka1QdV5bRE5RTYoqp3o6GfVxyWvT5ReQeretUM3dRzlqpeApxJXI7m/UAq8AvJCl1fPmqUPaVLoNqmtv9G9asOQv2pqrTwkw7iJEzaNgDaNW8SKi+x/+/sOun1jpbDb+iJZ12xWNLUUhBWadaYVqpL3eurJ06fNcseNe8vVZX6jd1Xq/A94rlL4N9FBZ7xVe7bmZ/95EyRSAJzp7WFqqHxm3pOBr0A1U+BZAdXjb6sylcrx+a9GFwNg1NdY9tnFf2tg1Cbokrp9LJC12eNxFX6NgCd8xcCB7aVQ7hDcudcF5+K3Khtar0dJaYaVbhqaknhT1zVNFjUbdpU5vneQwqlAaTfqCoPhODX5WNzVgeQP+Wpqre8o/tE0Fkg55HYlfzvVlGP4N20fUz2L6y5S7zaprWlqF9D7As7FeTsqtKCp1zUlUhp2QDo5u8fQl+kEyHzAD+6idzIWJG5Sbsie++QijXA6BjCbA+HpLi8uOB1V3UNFv2Pi7uuU5UbgSGBFKE0iKcLRfQRmwb3/l5c9+bIrMzeU8E7A/RMYEzQNQERQX7eF8mYazP8g1H3yivZ9GXUKRTEGkuRH00tLbjGRV2Jlp4NQOf8k4C/DejD0dAEyf/Oa04LcqymoeUSEbk3xjBPV5UWnuWkoEFo+Rtdk9TjHuCkIOsQWIHoH8SXZ07Iz1mZCjta4ql/9X738YKegSdnoFQRzDv99yCLfOSaqvzsVUFXMlg1NzdnbotkPYM42epbc1Boz8nJOuv/g6RpA7BgFujAzsVWb5qMviGppzepqlfX1FYHlMcUB/n81NICF++/BqW9awMuU4/voyTDyYsdoIsQntbIkL9WHn5w0q5ncaW6vX3IsKzhU8TzZqA6TWC6wsig63oXKwWdMyU/L+UeE6eTvZP+HgL9vINwm3w/esK0Yye5P148QdKzAeiad+nerX8D+LCcIaNnL3JcknM1L7dOF58Xie3fYU9UOTrVFq4km5c2bsztk/A8US4hee42FViFsERVloS86JJUf11QrRoesrGnKOT5paiUozIN0XI44Fd9CaQvo95NU/Kz/zjYn84kg9qGtlsR/Y6DUBEP/5RUH7Gepg3AgmtRvWOAH58leXMedVpQnNQ2tP4e4YLYoshjVaUFsc69NvQvEhTfuws4Oeha3kMH8HdBG1SlyQ/5TeG8vFeS7VyCatXwkI6Ow8NeRqH6WgZaAlICFJPYXRixeFWFmytG5zxiUx6TQ11Ty3+qyn1Ogql8o6qs4C4nsQKUng1A54Kfgg7sCEblOhk9Z6DNQ0Ita24f40cjzSCjYotkY4JdWr5h07kq3u3EfppYIvQJtPrQLmg7yGuifruPt059r8PXnT3Txo3b5SpZQ0fH8D4/M1s1kh2VUG4IHa2i40EmCDpeYTz9ZzHEOo41GEqLiixYNyb7NzbVMXnUNLWcLCqLcPG0SHmkqqzw07FXFbw0bQDmPwucOsCP3yd5cy51WU881Ta1XYxqjJOnUmt8ZSpobtbM7SO7LxZhNnB40PXEaCfQg9CD0oOiiG4VvKivGhGP/uNOlYMFCSGaoT4jABAdIcgwFbJRsglq50S8qSxVuKMiP/txu+NPLrXNLUcTlSXgZJ3OqwzViqqioq0OYgUu7RoA1YUhutZ0MfCFQI2SN6fMZU3x1L+opXURyEAbnrelzAEWqSSAM+NN4vjAU+L7359y2OglQRdj/l39qtfyI32RGoQjHYTbpuJXTi350CsOYiWFhB5wkRDda44jtlXAJbppQSx77BNKRDQqfIX+u7RYlEezDr3JRU3mn4qLpXfK2Nx7PO0rEvgW/e/hTWrbAfw8FNJJFfm559jFPzlVNzePiEQif3Z08VcRLkqniz+kYwOgfDzGCILHOU5qSZDpJUVt9N9hxkSV6+sa1p7ooibzr8rHjt05JT/3B8M35xypyEWgLwddkzlgqxS5PhLJPKIiP/erJ+TltQZdkHl31e3tQ4ZEs/4EnOAmot5WWVL4RzexkkdaNQCqKsDnHAS6MPZqEuv1Vwp+BNTHGCak4j/8YuO6ZNxHnRaKi6W3Mj/noYr8vBJP9UTgSfq37JnktBXhHk85oSI/t7gyP+c2m96X3Orr6zOGbfcXCpziIp6qPvn66sI5LmIlm7RaA6Ad8z+Ox5+cBBM5QXJnv+QkVoLUvby2TH1/OR98+uH7UvhjVUnBubZvOTH6tw/KpYh8LkkGCg12UeBvijwU0t5Hy8eOjfX1mkmQhQs1dMSktt/Gvj36bVLnb8+cOW2au50wySS9GoBN8+sQKhxFWyh5Nzr6JUqc2sbWW4AbYw4kekNVSdH3Yq/I7K+WlpaszSMO+ZioXIZwCmn295nkfIQa0Ee9kCwsz83dGHRB5sDsXRB9H8jFbiJKOyJTq0ombnITL/mkzReMds3/DMrDLkOizJDRc5Y6jBl31dXV4aHZ414ApsYYyveVj04rK3zGRV3mwNRs6D4qhH8hIheQGvMEUpGC1orKwr6oPDptXE7KjnQ1UNvQegfCtY7CbQ0p06eUFab1Wp20aAB0y9xD6QuvAvIdh24gN3eKyOUptTVueeOaiVG8lcDBsUXSzaLR8sqyye1OCjMDsmxjT7Hinw98TqAw6HpS3A6gWpQ/q3pPVxyWvT7ogkzsappaF4hyg6NwfZ7KmRVlBf/PUbyklR4NwKb5DyN8Ji7BhTskd851cYkdRzWNrV8UiH26n8rfw31Dp5eX23vQoKmq1G3aXOn50Y8hcgZwLGnyNxxHCqxUlWdC+E9vy8+tnSkSCboo405dY8s3FPmho3Aqypcqywp/5SheUkv5L48Y5/7vVwrQWZJ342NxzBEXdY2tjyjMij2SPlBVWuTovZpxZVln5xiinAFyBv2TL2McCZ0W+hRe8mCJr7I44kWWTB8zxg67SlM1Ta1XivJjV/FU9eapZUVzXcVLdindAOx97/8b4r+dcTciZ0nu7Oo453HqxcZ1IzPoa6B/tnpMROQrlSUFdzsoy8TBQtXQ+De6SiTkzfBVp4kwAwf/3lNAl8JyVJeKyGJP+5bbqv3BYe+d/524uo4pv64sLbhoMO1+StkGQDct+AKi9xHjlrcDsAPkfMmb/XSC8jmxtLHlwx7yHLE3SX2Inl1VUvSsi7pM/C17o2echvwZKMd5omWqUoL7dTKJ0gs0C9qkSJN4XoNKtKkiL88mKw5CtY2tNwK3OAz53EGhPWcWFxf3OoyZ9FKuAVBdGKJzzXcRbiTx9fehXCWj56TUnbDDBTJbfWTGtNKCJgexTADqN2zIiXqZpYJfgvKh/lP4GK8wgaAP6hHeBF4DbVfkNfpPJ2z3fWnbnZ/dYu/ujapK3cttt6G4XJdVuyu059SZxcXbHcZMCSnVAOjm7x9BX+QBhI8EXMoj9Hpfk8Nv6Am4jv2ycKGGjpi89inQ0xyE2+AJVRUlhbZ6Os3Ud3XlR31vPH70cMHLBc1GJRtP3z7JLwcI8c9T1YbKPk2Dwi5gN4DAFgAVdqvyFtAjQg++9iBej+J3K9KN5/f07c5af+KRh25J3D+tSTV7L/4/Qvm6w7CNfihr5rTicYNyumNKNAC6/odDydr5dWAOMDzoevbqRvQGcqIPiMxN+juTuldeyda+jHr6z1uPicLLGb0yo7y84K3YKzPGmPfXfxPTei/Il5wFFVo8L3RSRfGEQfsaKakbAO2Ym4eEv4hwDZCsJ/S1o/oDMjIellHXJ/UFcenf11aEPP8FhSwH4Z7e1bP+YzNnzkz65scYk7qam5szt0WH/Bb0PFcxFV73w95J04+euM5VzFSUVA2A6sIQm1snEfU/ApwJnAaEAy5rf+0CnkTkWdR7XvK+k5QnhdU2tl4G/MJFLBHuqywpvNRFLGOM2ddTLS1Zo3bJIxDzKa/v9EYI/6QppR9a6zBmSkp4A6A616MrPA2RU1AdBxyMMBJlNPAh3Nydvk8BLEMYRfwnqu0A1gBdwFuobEb0dUSeCfqQodrGll+6m5fNd6tKC+c5imWMMQCsXNl+aG+9LC7/AAAYFUlEQVQo+ieFDzsM2+kT+vC00gmrHcZMWQltAHTTrdMR/6f0TzALgGxA+qYQ8UYS8mqAg4KpQ/9GVL8m+d9tDiJ7dXv7kCHboi8ITHERT5RvVZYV/sBFLGOMqW1oORzhSZAyh2HfUtWPTC0rSqlTXuMpYQ2Adi34NL7+CiEzUTn3sR2PUyRnzrL+euafg/IHgnvFsA2Rjwc1XGhZU+s4VVYo5DoIpyLyVRsUZIyJ1bKX26b4vv4Zp+u+ZAc+Z1QdW7DYXczUl5AGQLsWHI/qUuL9eP+97UH1bBl941//pa7+YUIPEtRaCGUzGeHjZNT1rweRflnjmpMU71lHiwJ9RC+qKin6jYNYxphBqK6p9ZPaP911mMOwW/Hlo3bx/3fxHqHbT/VOgrv470Y4f9+LP4CMnv0QIl8G/ADqAmEUkb7A3p9XlH7oBV/0C/QfmBIrD5UHa5paHJw9YIwZbGob2r6uymO4vfhvUfVPs4v/u4v7na9umleASFAr4neg8kkZPft/3++HtGvBp1F9iMSNFX6nPUhGruR+e1sAuQGoaWidLcJ8R+F6ReRTlSUFf3EUzxiTxhYu1NC4yW13CVzhOPQmxDutqmRio+O4aSP+TwBEZsQ9x7trR2XaB138ASR39u8RPY3+FfuJloX0OlmMN1BTywoXqMovHYXLVNVH6/7ecrqjeMaYNFXd3DziiMltj7u++Cu8TlROtIv/+4t/A6CBDPB5g0ikQkbP3u9/+ZJ74/NoqApI/J24emMSnnMfGX1bvgLi6qCfoXjyeF1j6yccxTPGpJnahpbDh0WzXgA+6jSw0JIRkhOrjitocRo3DcW/AfA0iOl4hxEO/1Q3zN3vd0n61txRSPRugtgaqAQ+A728vLwvktl3HmiDi3gKWQqP1TW0XuQinjEmfSxrXHMSIssVjnMc+pVIX+Tk8uKCQBZWp5r4NwBRcXJBGYALCGe8oB1z8z7oB7Xze4XsCS8HTk1AXf+WHk+T4jHVjMmTt3ki5wAbHIUMqXB/TWOrTQs0xvQf6NPQep2P9/8A108+6yWj78QZx0929f2V9uLfAIyOLANei3ued6Un4IVf0M3fP+I9f2LTglKIvghMTGBh77REcua8EVDuf1NRUrg+pN5HgE2OQnoCv6hpbLnGUTxjTApavHr1QXVNax9R4XZcz18RFjNUT6k86qiUOKE1WcS9ARCZ6yMyO9553sckIpHntXv+Yfv+D7rxlmJEn8N9J7q/fCDI/2/e1ZSyia/S/17O1esbEeTOmsbWOY7iGWNSSG1zy9Hh3tAy0PNdx1bVJ8N7hp1eVVS01XXsdJeQOQCSO/thVJwcQDNAE4jyrP7j1uy3/wvtmDeBUOhZIPt9PhdvN0renBcCzP+eqkoLV/jCWSA7XMUUmFfb0PpfCxdqyFVMY0xyq2lqmUVU6kAmu46t8NP1rxZ+orx87E7XsQeDxI0CVhW6b52Dr3OCGwesfyM371S63xyC31eLcHQwdbAd0Wsk98Z7A8q/3+oaWj+iwl+AIa5iCjzTlxmZNWPy5MBmHxhj4qu6ujo8LPvw+Yp8C/fXGlXVW6aWFc11HHdQSfxpgB3zJuDJJf2nATIOdCQwNIEl/AyRsagmcovaDpAt4LeDtwi/714ZM7czgfljUtfUdraq/gGHg5IUlodCoY9VFE/ocBXTGJMc+g/z8X4LelIcwu8E/WxVadHjcYg9qAQzA38fqnM9NocPI6KT8LwyVGfSfwTkiKBrOyDKZoRq4HnEawJdI7mzNwZdlgs1TW2fEtVHcLt45w3xvI9WHjMxqJ0ixhjHahtazkP4BcioOITv8Dz5WMUxBcvjEHvQSYoG4N3ohrnDyMj4BKqXAicHXc/7UFT+jOf/kpy8p0Uu7wu6oHipa2j9ggr3Ay7f4b8pyrmVZYXPOYxpjEmw2paWg9kpP0W4ME4pmqNh76PTj564Lk7xB52kbQDeSTfNn0b/rPqZQdeyj//Bl7kyZvbLQReSKLUNrZ9GcH1uQi/Il6tKCx5wGNMYkyC1f2+bgae/BsbHKcVfw71yXnl5QRCD5dJWSjQAb9OuBZ9F9b+AnIBLeQ2VL8vo2YsCriMQdU1tH1XVx3C4MHCvew4K7bmyuLi413FcY0wcVFdXh4eMOnyOiMzB7ZPBd9AHwr1vXV5eXp62T1eDklINAID2zD2caPh3QFCHDP2RjMjFMnLumwHlTwo1TS0ni8oTuB+dXB8Oybk2ytOY5FbXsHoCEv6NwrQ4pYgoMmdqacFtcYo/6KVcAwCgOjeTztADiHw2wal/TG7kGyJz/QTnTUp7H/s9CRziOHSHqDersmzii47jGmNipKqy7OW1l6tyB+jwOKXZoB6zph5TuCRO8Q0p2gDA3p0DneG7ERIzZ164SXLn3JKQXCmkpqHlePFkEer8tYx1/8YkmSVNLQUhlbuB/4hjmhfD4fAF5UePT4sdVMksZRsAANWFIbrWPAp8Ms6pfix5c74e5xwpa2ljW4mHPkscRior+vAw3XlZWVmZs4mExpgD09zcnLk1mvUt6R9d7nrtz/8R5Ic7e17/9syZMyPxymH+KaUbAADt+MFwZM+y+E3107+RO+kUkVnR+MRPD3UNqyeohP8CHBWH8K8Cn6sqLVwRh9jGmPextKl1mqfcAxTHMc12FS6ZWlL4SBxzmH2kfAMAoB0LjsHTeiDLcegeRErSZZhPvL3YuG5khvb9DxKX7ZoRVV2w/tXCebNmiTVjxsTZ3n398xC+RtxW+AOwJqScO6WscNBsp04WadEAAGjnvPng+tRBvUTybvyl25jprbm5OXObn3UvyhfikkCpBv1CVVnRP+IS3xhDTUPLOSLy38C4OKd6ItwrX7D9/cFInwZg/Q+HkrWrFXSsm4iygtwbpoiIuok3eKiq1Da23iQi3yUuv2O6GeXyqrKix9zHNmbwWrJq7ZGhiH8XEO+zUnar8K2qYwp+at+xwUmbBgBAu+Zfg3Knm2B8SkbP+aOTWINUXUPrRSrcA/E6/VHvj2RGr7ZTBY2JzeLVqw8K9YWvF+Ua4rjIr582eD6fqzi2qDm+ecwH8YIuwKlo1i+ArQ4itZEXsZOmYlRZVvgrUc4E4jQ0SS4O9YZfrm1sOys+8Y1Jb6rq1TW1/Ge4N7xGlBuI78XfR7lj81Aq7eKfHNLqCQCAds6/H/hSTEFsz79TS5tbC70ofwBK4pdFHo2qXjG9rDBljlk2Jki1L7fOJCo/RPTYBKTr8JUvTSsrfCYBucx+Sq8nAAAqsW8jEW+hg0rMXtOKC1t3HRSqAB6MXxY9PySsrm1svUxV066xNcaV2pVtRbWNbQvxeS4xF395zA9lFdvFP/mk3Relbpg7jHB4MwPeEigbJG/2YU6LMv+ntqHtakR/AITjlkRYJH7kK5Vlk9vjlsOYFPNi47qRmUTmKHoFcVuX8y+2InpFVUnRrxOQywxA2jUAANo5vwaoGuDHH5G8OZ92WY/5V8sa15zk4z1CHCYH/pPsENWbR4T3/JedLmgGs9qWloPZ5V0NejUwMiFJhcUaCV049bgJryUknxmQ9HsF0G/1gD8p8orDOsy7qCj90AuRSOQEgaXxy6LDVbh9WzSrua6x5fz45TEmOVU3N4+oaWz7NrtoB72ZhFz8ZYci17/+SsHJdvFPfvF7DBusloF/VFvdlWHey4zjJ29obm6euT2adYfCFcTvaVShIgtrG1v+1/P5hq0+Nulu8erVB2XsCV2pUa4FHZXAB72Po/4VU21IV8pIzwZAdQsywF961S1uizHvZe+j+atqm1qeROVBID9+2eRU36OxtqH1t1H4pu0WMOmmoaFh+C5GXEKvfkeF0QlM3SHKtyvLCh9KYE7jQHq+AvAkhlkAst1dIWZ/VJUUPYt4xwFPxzmVh3BhSPSV2oa2rzc3NydiIZQxcbV49eqD6hpbv7XLG/4aondBwi7+PiI/C/fKZLv4p6b0XAS4acGpiD47oA+LN0lyb1jjuCSzH1RV6praLgV+BAxLQMr1qNy5eZh/91lFRXsSkM8YZ+pXvZbf19d3uQhXgoxKaHKhBeHyqmMKqxOa1ziVng1Az/xxRFnHgf/z7WRHJFsmzN0dj7rM/qlpWnOU+KGHEzSgBJR1CLfu6ll/v51DbpJdTUPL8YJcjfBpICPB6fsE/WHPUG6ypjn1pWUDAKCb5tchVBzgxx6VvDmz4lKQOSDV7e1Dhm6Pfh/lKhL2e6qrUbm5srRgoYj4iclpzAdbuFBDR0xa+wnQbyBMD6IGhT9qiG9NKy60hdJpIn0bgM4FZ4I+dQAfieL7x8mY7zbFrShzwPbODLgHmJTAtE2Czlu3uvAPs2ZJNIF5jfkXi1evPii8J+NiRK8CJgZShMrf1fO/MbWk6PlA8pu4SdsGAEA7F9wF+vX9+mHhG5I75644l2QGoLq9fciQ7dEbRbmOBD7yFGgD7hqiOx4oKyvbkai8xtQ0tBwv4l0M+nngkIDK2CiiN1YcU/iAPRFLT+ndAOhcj67wzcB3gNB7/NhuVK+R0Tf+PIGlmQFY2thW4sG9oJUJTr0V5UFfo7dPO3bSGwnObQaJ+vq2QyKZegFwGXBCgKX0otzNML2xqqjIxemqJkmldQPwNt14SzEh72rgdGAc4APtIE8S0R/J2Dnrgq3Q7K/+40vbLgHuBEYkOH0vyiOe6m2JHij00pZrj/R9TlWRE1GOQhmPcCj9T0R2Cmzx4VXgZVGe26PeczNyb9+WyBrNgVNVr65h7TQ8vRD4PInZ/fJ+9TzpEb3KztEYHAZFA/BOqnMzAV9krq32TmF1DasnqGTcDXpaAOkV5H9R/96Dwr1PxOusgWqdGx6+ZdsFqFwuMIMD+3vdqcqfBO+/puTcviwe9ZmBW7Jq7ZFeX/RLgnwR4cig6wFqBb2msrSoJuhCTOIMugbApJe6ptZPqnIHQS2Qgk6EX0lU7qs8tsDZ/IjlPdeeB95toDH/cyks8lSvLs+5c+BnZJiYLX5p9dhQRvhcUTkPdAbJMYitXkTmVpYU/CXoQkziWQNgUl59fX1GJGPkVxG9BTg4wFJWAPeEe4f9prx87M6BBHhp23dyo719DwAfdVsavaI674Tsg24VmWsLuhKktqHlcPDORfRsYCbvvRYp0ZoEnVdRUviYiGjQxZhgWANg0say5vYxfjRyK8hFBHt3tUVEf+/DwqpjCl/Y3xXUK7quPUE9eVzhsDjW9myUPedXZf/EFnfFSX1z2xF9Uf88Qc6j/1jypPmeFVip6M2VJYVP2IXfJM0vpjGu1DW1lauvdwU1MGUfGwUe8z0eqSouWPpeX7rLu755Mh5PAAfFvSJlZSgr4/TjD/peV9xzDQKqKstXtZRFo6HTRfxPoTKFpPtu1QZB5laUFDxuF37ztiT7JTXGDVWVusa2CxDmAYVB17PXekEe9TW6sKq0aNnbX8R1Xd8q9zz/ORJx8f+n+j2+9xHbKTAwtU1rR0P0VNQ7HfRUEncAz4FqUpG5VcdM/KNd+M2+rAEwaa26ujo8NOeIL6B6IzA+6HrepvC6wDNkbqwN5T5xK+iYAMr4w5TsO84NIG/KeaqlJSt7p0xH9DRV73REy0ju78+/gvyosmTi03bhN+8lmX+BjXGmubk5c2tkyH+K6Gzi+479AChezl+QrH8EVoGIfLV81A9sCNY+6us3DPMzt5dHCU0V9ESQk0GHB13X+xHYo+jDSOiuqpKJjUHXY5KfNQBmUKlubx8ydKt/OaLfIeDHtjJsDd7I54IsAWBryPeOOj739g1BFxKkJavWHhnu02mKViFMA8pI/El7AyLQpXC3Fwr9rKJ4QkfQ9ZjUYQ2AGZTq6zcMi2bs/JoK1xJEIyA+odG/hVDwRwwI3FuefcdlQdeRKPX1bYdEwpSo51eIynSEKmBs0HUNwCqFu3R71m+mTRu3K+hiTOqxBsAMatXt7UOGbIteKOg1IJMTlVeGv4J36N8Sle6D9EbxCqqybw/uXUQcLF26fqgM332UhxyjHseIUqJQTP848FTlA4t85cdTSwsW2ft9EwtrAIyhfyZ7bWPrRz2RaxU+HO98Xt5jSEZ3vNPsN4HvlmffMS/oOg6UqsqSla/mhzLDEzxfjlR0MkoxHiUoE0mewTuxWgs86AkPVpQUrg+6GJMerAEwZh/LXm6b4kf1WoRzgbDr+BJ+E2/0712HjdWaKdl3TAq6iH3V19dn7Bk2amxGJHKkqjdehSNBxytypMCRwBFAZtB1xskuQf+Ayv0VpQXVdrdvXLMGwJj3ULOyfTwh/yrBvwhklKu4MqIR75ClrsI5E+2ctYi+Ua+r0IVqj6fSgyc9qN+jSC9R2RoKRaMSCkV2RcPbAIb2dm0vLy/ve2ecpUvXD42O8IcAeOHowZmRSKgv5HletP9ce1/IEuUQEc1WZJTo3v+EbIRRKNlADpBNYmcjJIt6Vbl/iO/97rjjJrwZdDEmfVkDYMwHqG5vHzJsm/8pRS+l//VATH83oexFMCT5Tlv1t8xEdybdQ4BBQaBLld/heb+0LXwmUawBMOYA1K5sK1LP/5yIXMwAF5OFRv8ewsl3Y6fbjsXfWhV0GYNJD8pTij6a0ffWM/s+STEm3qwBMGYAFi7U0LjJa2cKXAb6SQ5grUBo7D2wf+cDJZTumoi/+bSgy0hvQjc+Tyv66O7N/3h65syZkaBLMoOXNQDGxKi+/tWcSGboUyhf2DtE5r3/riRCaOx9iSvuAOiecfjdrk8hNnsf7z9jF32TbKwBMMah+ua2IyK+ng86C5WKf/sBbzeh/AcTX9h+0N4x+F2fCLqMdKCgjYoswuOJquKCmv09EtqYRLIGwJg4qW9uOyIS4ZOg57/9ZEAkijf23qBLe1e6exx+jz0BGBChG5Vq0L+i+lRVWVFaDVUy6ckaAGMSYFlz+xiNRE9TkbNDh91zHkST7m9Pdxbhbzkl6DJSRQRoUNUnReTPlSUFK+0u36SapPsSMibd1fdc16BoadB17Eu3leNvLQ+6jGTVC7wEWivi/XWIv/35srKy4A9yMCYGzqecGWPen6o2IiRfA9DnbNZROuhQqBFhqQo1u4eHVsycMGF30EUZ45I1AMYkmvA88Pmgy/hXAr2peCCeE1HgVZQVCIs9X5dMKStcZaN3TbqzBsCYBAv53tNRz4+SRAfVaG8eGh0SdBmJ8AZIM6qNKjR7Ii+H9gxdVV4+dmfQhRmTaLYGwJgALO/55iIgaabu+G+diG4vDroMl94CWlFWgaxQoVlEmqpKJm4KujBjkoU9ATAmAL7ITzzV5GgA/Ex0Z1HQVRyot0BfA1mH8pqKrhP11iH6Wrg3uq68fFLynLVsTJKyJwDGBEAVqd/yzXqU44Ouxd9esl7fmr4TIXvvSXxBfS9sR+lB6AHpRnQzKj2gm1XoxtfXvFBoXWafrLNT8oyJnT0BMCYAIujyzXIV6IsE24i/PiSr6eiy0ot2AKiqvLiyNSccDmeLF80mqtl4MlS0/yhfVIaqMARA8A8VEB8vU9DhAApveqgiEvFVtgEgukuU/hX0ylYRjYL0Cf5mfOnxMjM2D9UdPcXFxb0B/PMbM2jZEwBjArR88zd/gnJFQOl9Qc4sz/7BswHlN8YEyAu6AGMGs+1vjbgOYUUQuRW51S7+xgxe1gAYE6CZE+buzuzlLIGWBKf+/ZRRw29KcE5jTBKxBsCYgJWNuaMzGuL0xDUB8rtho0ZcJDLXZtcbM4hZA2BMEqg89I72jD5moPwtjmkU0VvLRw3/fLHMtQV3xgxytgjQmCSyUM8Pjd98xGxRuQEhy2Ho1z30shOy71zkMKYxJoVZA2BMEqrtvK4oFNJbgU8R25O6txR+nNXHbWVj7rDT64wx/8caAGOSWH33tZNV5FLgM0D+fn9QWIHym7AXefC4kXfZ0BxjzL+xBsCYFKCKLHvzmlIv6p2ocLQIE4BDEDJRdiCyGd9fo540haPec8fn3r4h6JqNMcYYY4wxxhhjjDHGGGOMMcYYY4wxxhhjjDHGGGOMMcYYY4wxxhhjjDHGGGOMMcYYY4wxxhhjjDHGGGOMMcYYY4wxxhhjjDHGGGOMMcYYY4wxxhhjjDHGGGOMMcYYY4wxxhhjjDHGGGOMMcYYY4wxxhhjjDHGGGOMMcYYY4wxxhhjjDHGGGOMMcYYY4wxxhhjjDHGGGOMMcYYY4wxxhhjjDHGGGOMMcYYY4wxxhhjjDHGGGOMMcYYY4wxxhhjTKL8f9Bj8bMF7YEzAAAAAElFTkSuQmCC;" vertex="1" parent="1">
          <mxGeometry x="290" y="368" width="60" height="60" as="geometry" />
        </mxCell>
      </root>
    </mxGraphModel>
  </diagram>
</mxfile>
